<svg height="480pt" viewBox="0 0 480 480" width="480pt" xmlns="http://www.w3.org/2000/svg"><path d="m268 220-32.398438 32.398438c-7.441406 7.441406-17.523437 11.601562-28 11.601562-10.960937 0-20.800781-4.480469-28-11.601562-7.121093-7.199219-11.601562-17.039063-11.601562-28 0-10.476563 4.160156-20.558594 11.601562-28l68.398438-68.398438h152l40 40h32v216h-40zm0 0" fill="#ef6461"/><path d="m270.078125 414.078125c6.320313 6.320313 9.921875 14.960937 9.921875 24 0 9.363281-3.839844 17.84375-9.921875 24-6.15625 6.082031-14.636719 9.921875-24 9.921875-9.039063 0-17.679687-3.601562-24-9.921875l-48-48c6.320313 6.320313 9.921875 14.960937 9.921875 24 0 9.363281-3.839844 17.84375-9.921875 24-6.15625 6.082031-14.636719 9.921875-24 9.921875-9.039063 0-17.679687-3.601562-24-9.921875l-78.078125-78.078125h-40v-216h40l40-40h160l-68.398438 68.398438c-7.441406 7.441406-11.601562 17.523437-11.601562 28 0 10.960937 4.480469 20.800781 11.601562 28 7.199219 7.121093 17.039063 11.601562 28 11.601562 10.476563 0 20.558594-4.160156 28-11.601562l32.398438-32.398438 194.078125 194.078125c6.320313 6.320313 9.921875 14.960937 9.921875 24 0 9.363281-3.839844 17.84375-9.921875 24-6.15625 6.082031-14.636719 9.921875-24 9.921875-9.039063 0-17.679687-3.601562-24-9.921875l-48-48c6.320313 6.320313 9.921875 14.960937 9.921875 24 0 9.363281-3.839844 17.84375-9.921875 24-6.15625 6.082031-14.636719 9.921875-24 9.921875-9.039063 0-17.679687-3.601562-24-9.921875zm0 0" fill="#577399"/><g fill="#313b45"><path d="m472 160h-28.6875l-37.65625-37.65625c-1.496094-1.503906-3.527344-2.34375-5.65625-2.34375h-312c-2.128906 0-4.160156.839844-5.65625 2.34375l-37.65625 37.65625h-36.6875c-4.425781 0-8 3.585938-8 8v216c0 4.414062 3.574219 8 8 8h36.6875l75.710938 75.710938c7.921874 7.929687 18.449218 12.289062 29.664062 12.289062 21.488281 0 39.050781-16.3125 41.457031-37.167969l24.878907 24.878907c7.921874 7.929687 18.449218 12.289062 29.664062 12.289062 21.488281 0 39.050781-16.3125 41.457031-37.167969l24.878907 24.878907c7.921874 7.929687 18.449218 12.289062 29.664062 12.289062 21.488281 0 39.050781-16.3125 41.457031-37.167969l24.878907 24.878907c7.921874 7.929687 18.449218 12.289062 29.664062 12.289062 23.121094 0 41.9375-18.816406 41.9375-41.945312 0-11.191407-4.359375-21.726563-12.28125-29.65625l-16.40625-16.398438h20.6875c4.425781 0 8-3.585938 8-8v-216c0-4.414062-3.574219-8-8-8zm-8 278.054688c0 14.304687-11.632812 25.945312-25.9375 25.945312-6.933594 0-13.445312-2.695312-18.34375-7.601562l-47.992188-47.984376s-.007812-.007812-.007812-.015624l-38.0625-38.054688-11.3125 11.3125 38.054688 38.054688c4.90625 4.90625 7.601562 11.425781 7.601562 18.34375 0 14.304687-11.632812 25.945312-25.9375 25.945312-6.933594 0-13.445312-2.695312-18.34375-7.601562l-47.992188-47.984376s-.007812-.007812-.007812-.015624l-38.0625-38.054688-11.3125 11.3125 38.054688 38.054688c4.90625 4.90625 7.601562 11.425781 7.601562 18.34375 0 14.304687-11.632812 25.945312-25.9375 25.945312-6.933594 0-13.445312-2.695312-18.34375-7.601562l-47.992188-47.984376s-.007812-.007812-.007812-.015624l-38.0625-38.054688-11.3125 11.3125 38.054688 38.054688c4.90625 4.90625 7.601562 11.425781 7.601562 18.34375 0 14.304687-11.632812 25.945312-25.9375 25.945312-6.933594 0-13.445312-2.695312-18.34375-7.601562l-78.0625-78.054688c-1.496094-1.503906-3.527344-2.34375-5.65625-2.34375h-32v-200h32c2.128906 0 4.160156-.839844 5.65625-2.34375l37.65625-37.65625h137.375l-54.742188 54.742188c-8.992187 8.992187-13.945312 20.945312-13.945312 33.65625 0 26.25 21.351562 47.601562 47.601562 47.601562 12.710938 0 24.664063-4.953125 33.65625-13.945312l26.742188-26.742188 188.398438 188.398438c4.90625 4.90625 7.601562 11.425781 7.601562 18.34375zm0-62.054688h-28.6875l-156-156 14.34375-14.34375-11.3125-11.3125-52.398438 52.398438c-5.96875 5.96875-13.90625 9.257812-22.34375 9.257812-17.425781 0-31.601562-14.175781-31.601562-31.601562 0-8.4375 3.289062-16.375 9.257812-22.34375l66.054688-66.054688h145.375l37.65625 37.65625c1.496094 1.503906 3.527344 2.34375 5.65625 2.34375h24zm0 0"/><path d="m216 0h-64c-26.472656 0-48 21.527344-48 48s21.527344 48 48 48h64c3.214844 0 6.441406-.328125 9.585938-.960938l-3.171876-15.679687c-2.101562.425781-4.261718.640625-6.414062.640625h-64c-17.648438 0-32-14.351562-32-32s14.351562-32 32-32h64c17.648438 0 32 14.351562 32 32 0 4.457031-.894531 8.761719-2.65625 12.800781l14.65625 6.398438c2.65625-6.0625 4-12.527344 4-19.199219 0-26.472656-21.527344-48-48-48zm0 0"/><path d="m220 28.800781c-2.65625 6.0625-4 12.527344-4 19.199219 0 26.472656 21.527344 48 48 48h64c26.472656 0 48-21.527344 48-48s-21.527344-48-48-48h-64c-3.214844 0-6.441406.328125-9.585938.960938l3.171876 15.679687c2.101562-.425781 4.261718-.640625 6.414062-.640625h64c17.648438 0 32 14.351562 32 32s-14.351562 32-32 32h-64c-17.648438 0-32-14.351562-32-32 0-4.457031.894531-8.761719 2.65625-12.800781zm0 0"/></g></svg>