<svg height="480pt" viewBox="0 0 480 480" width="480pt" xmlns="http://www.w3.org/2000/svg"><path d="m472 8v464h-72v-168c0-19.839844-8.078125-37.921875-21.121094-50.878906-12.957031-13.042969-31.039062-21.121094-50.878906-21.121094-39.761719 0-72 32.238281-72 72v168h-72v-464zm-32 192v-32h-32v32zm0-64v-32h-32v32zm0-64v-32h-32v32zm-64 128v-32h-32v32zm0-64v-32h-32v32zm0-64v-32h-32v32zm-64 128v-32h-32v32zm0-64v-32h-32v32zm0-64v-32h-32v32zm-64 128v-32h-32v32zm0-64v-32h-32v32zm0-64v-32h-32v32zm0 0" fill="#bdd5ea"/><path d="m408 168h32v32h-32zm0 0" fill="#577399"/><path d="m408 104h32v32h-32zm0 0" fill="#577399"/><path d="m408 40h32v32h-32zm0 0" fill="#577399"/><path d="m400 336v136h-144v-136c0 13.28125 10.71875 24 24 24s24-10.71875 24-24c0 13.28125 10.71875 24 24 24s24-10.71875 24-24c0 13.28125 10.71875 24 24 24s24-10.71875 24-24zm0 0" fill="#577399"/><path d="m400 312v24c0 13.28125-10.71875 24-24 24s-24-10.71875-24-24v-24zm0 0" fill="#ffbd52"/><path d="m400 304v8h-144v-8c0-39.761719 32.238281-72 72-72 19.839844 0 37.921875 8.078125 50.878906 21.121094 13.042969 12.957031 21.121094 31.039062 21.121094 50.878906zm0 0" fill="#ffbd52"/><path d="m344 168h32v32h-32zm0 0" fill="#577399"/><path d="m344 104h32v32h-32zm0 0" fill="#577399"/><path d="m344 40h32v32h-32zm0 0" fill="#577399"/><path d="m352 312v24c0 13.28125-10.71875 24-24 24s-24-10.71875-24-24v-24zm0 0" fill="#ffbd52"/><path d="m280 168h32v32h-32zm0 0" fill="#577399"/><path d="m280 104h32v32h-32zm0 0" fill="#577399"/><path d="m280 40h32v32h-32zm0 0" fill="#577399"/><path d="m304 312v24c0 13.28125-10.71875 24-24 24s-24-10.71875-24-24v-24zm0 0" fill="#ffbd52"/><path d="m216 168h32v32h-32zm0 0" fill="#577399"/><path d="m216 104h32v32h-32zm0 0" fill="#577399"/><path d="m216 40h32v32h-32zm0 0" fill="#577399"/><path d="m24 424h160v48h-160zm0 0" fill="#577399"/><path d="m184 344v80h-176v-80zm0 0" fill="#bdd5ea"/><path d="m24 312h160v32h-160zm0 0" fill="#577399"/><path d="m184 232v80h-176v-80zm0 0" fill="#bdd5ea"/><path d="m152 152v8c0 8.800781-7.199219 16-16 16h-112c-8.800781 0-16-7.199219-16-16v-104c0-8.800781 7.199219-16 16-16h112c8.800781 0 16 7.199219 16 16zm-36.878906-43.441406c6.480468-6.558594 6.480468-17.117188 0-23.679688-6.480469-6.480468-16.960938-6.480468-23.441406 0l-11.679688 11.839844-11.679688-11.839844c-6.480468-6.480468-16.960937-6.480468-23.441406 0-6.480468 6.5625-6.480468 17.121094 0 23.679688l11.679688 11.761718 23.441406 23.679688 23.441406-23.679688zm0 0" fill="#ef6461"/><path d="m115.121094 84.878906c6.480468 6.5625 6.480468 17.121094 0 23.679688l-11.679688 11.761718-23.441406 23.679688-23.441406-23.679688-11.679688-11.761718c-6.480468-6.558594-6.480468-17.117188 0-23.679688 6.480469-6.480468 16.960938-6.480468 23.441406 0l11.679688 11.839844 11.679688-11.839844c6.480468-6.480468 16.960937-6.480468 23.441406 0zm0 0" fill="#f3f3fb"/><g fill="#313b45"><path d="m472 0h-288c-4.425781 0-8 3.585938-8 8v56h-16v-8c0-13.230469-10.769531-24-24-24h-112c-13.230469 0-24 10.769531-24 24v104c0 13.230469 10.769531 24 24 24h112c13.230469 0 24-10.769531 24-24h16v64h-168c-4.425781 0-8 3.585938-8 8v80c0 4.414062 3.574219 8 8 8h8v16h-8c-4.425781 0-8 3.585938-8 8v80c0 4.414062 3.574219 8 8 8h8v40c0 4.414062 3.574219 8 8 8h448c4.425781 0 8-3.585938 8-8v-464c0-4.414062-3.574219-8-8-8zm-328 160c0 4.40625-3.585938 8-8 8h-112c-4.414062 0-8-3.59375-8-8v-104c0-4.40625 3.585938-8 8-8h112c4.414062 0 8 3.59375 8 8zm16-16v-64h16v64zm-144 96h160v64h-160zm16 80h144v16h-144zm-16 32h160v64h-160zm16 80h144v32h-144zm328-112h32v16c0 8.824219-7.175781 16-16 16s-16-7.175781-16-16zm-8-16h-88c0-35.289062 28.710938-64 64-64s64 28.710938 64 64zm-40 16h32v16c0 8.824219-7.175781 16-16 16s-16-7.175781-16-16zm-48 0h32v16c0 8.824219-7.175781 16-16 16s-16-7.175781-16-16zm0 43.550781c4.726562 2.753907 10.144531 4.449219 16 4.449219 9.609375 0 18.128906-4.335938 24-11.054688 5.871094 6.71875 14.390625 11.054688 24 11.054688s18.128906-4.335938 24-11.054688c5.871094 6.71875 14.390625 11.054688 24 11.054688 5.855469 0 11.273438-1.695312 16-4.449219v100.449219h-128zm200 100.449219h-56v-160c0-44.113281-35.886719-80-80-80s-80 35.886719-80 80v160h-56v-448h272zm0 0"/><path d="m216 80h32c4.425781 0 8-3.585938 8-8v-32c0-4.414062-3.574219-8-8-8h-32c-4.425781 0-8 3.585938-8 8v32c0 4.414062 3.574219 8 8 8zm8-32h16v16h-16zm0 0"/><path d="m280 80h32c4.425781 0 8-3.585938 8-8v-32c0-4.414062-3.574219-8-8-8h-32c-4.425781 0-8 3.585938-8 8v32c0 4.414062 3.574219 8 8 8zm8-32h16v16h-16zm0 0"/><path d="m344 80h32c4.425781 0 8-3.585938 8-8v-32c0-4.414062-3.574219-8-8-8h-32c-4.425781 0-8 3.585938-8 8v32c0 4.414062 3.574219 8 8 8zm8-32h16v16h-16zm0 0"/><path d="m408 80h32c4.425781 0 8-3.585938 8-8v-32c0-4.414062-3.574219-8-8-8h-32c-4.425781 0-8 3.585938-8 8v32c0 4.414062 3.574219 8 8 8zm8-32h16v16h-16zm0 0"/><path d="m216 144h32c4.425781 0 8-3.585938 8-8v-32c0-4.414062-3.574219-8-8-8h-32c-4.425781 0-8 3.585938-8 8v32c0 4.414062 3.574219 8 8 8zm8-32h16v16h-16zm0 0"/><path d="m280 144h32c4.425781 0 8-3.585938 8-8v-32c0-4.414062-3.574219-8-8-8h-32c-4.425781 0-8 3.585938-8 8v32c0 4.414062 3.574219 8 8 8zm8-32h16v16h-16zm0 0"/><path d="m344 144h32c4.425781 0 8-3.585938 8-8v-32c0-4.414062-3.574219-8-8-8h-32c-4.425781 0-8 3.585938-8 8v32c0 4.414062 3.574219 8 8 8zm8-32h16v16h-16zm0 0"/><path d="m408 144h32c4.425781 0 8-3.585938 8-8v-32c0-4.414062-3.574219-8-8-8h-32c-4.425781 0-8 3.585938-8 8v32c0 4.414062 3.574219 8 8 8zm8-32h16v16h-16zm0 0"/><path d="m216 208h32c4.425781 0 8-3.585938 8-8v-32c0-4.414062-3.574219-8-8-8h-32c-4.425781 0-8 3.585938-8 8v32c0 4.414062 3.574219 8 8 8zm8-32h16v16h-16zm0 0"/><path d="m280 208h32c4.425781 0 8-3.585938 8-8v-32c0-4.414062-3.574219-8-8-8h-32c-4.425781 0-8 3.585938-8 8v32c0 4.414062 3.574219 8 8 8zm8-32h16v16h-16zm0 0"/><path d="m344 208h32c4.425781 0 8-3.585938 8-8v-32c0-4.414062-3.574219-8-8-8h-32c-4.425781 0-8 3.585938-8 8v32c0 4.414062 3.574219 8 8 8zm8-32h16v16h-16zm0 0"/><path d="m408 208h32c4.425781 0 8-3.585938 8-8v-32c0-4.414062-3.574219-8-8-8h-32c-4.425781 0-8 3.585938-8 8v32c0 4.414062 3.574219 8 8 8zm8-32h16v16h-16zm0 0"/><path d="m86.039062 79.265625-6.039062 6.085937-6.039062-6.09375c-9.273438-9.363281-25.496094-9.378906-34.800782 0-9.527344 9.621094-9.527344 25.277344.007813 34.902344l35.152343 35.464844c1.503907 1.527344 3.542969 2.375 5.679688 2.375s4.175781-.847656 5.679688-2.367188l35.160156-35.464843c9.527344-9.625 9.527344-25.28125-.007813-34.902344-9.296875-9.386719-25.519531-9.371094-34.792969 0zm23.433594 23.636719-29.472656 29.738281-29.464844-29.730469c-3.382812-3.414062-3.382812-8.972656-.007812-12.382812 1.625-1.632813 3.761718-2.527344 6.03125-2.527344 2.28125 0 4.425781.894531 6.042968 2.527344l11.71875 11.824218c3 3.03125 8.359376 3.03125 11.359376 0l11.71875-11.824218c3.226562-3.261719 8.832031-3.269532 12.066406 0 3.375 3.410156 3.375 8.96875.007812 12.375zm0 0"/><path d="m288 272h16v16h-16zm0 0"/><path d="m320 272h16v16h-16zm0 0"/><path d="m352 272h16v16h-16zm0 0"/></g></svg>