<svg height="480pt" viewBox="-80 0 480 480" width="480pt" xmlns="http://www.w3.org/2000/svg"><path d="m312 328v16c0 17.679688-14.320312 32-32 32h-176v-48zm0 0" fill="#577399"/><path d="m312 56v272h-208v-8l38.078125-38.078125c6.320313-6.320313 9.921875-14.960937 9.921875-24 0-9.363281-3.839844-17.84375-9.921875-24-6.15625-6.082031-14.636719-9.921875-24-9.921875-9.039063 0-17.679687 3.601562-24 9.921875l-54.078125 54.078125v-232zm0 0" fill="#bdd5ea"/><path d="m312 40v16h-272v-16c0-17.679688 14.320312-32 32-32h208c17.679688 0 32 14.320312 32 32zm0 0" fill="#577399"/><path d="m104 376h128v16l-40 40v40h-184v-152l86.078125-86.078125c6.320313-6.320313 14.960937-9.921875 24-9.921875 9.363281 0 17.84375 3.839844 24 9.921875 6.082031 6.15625 9.921875 14.636719 9.921875 24 0 9.039063-3.601562 17.679687-9.921875 24l-38.078125 38.078125zm0 0" fill="#f3f3fb"/><g fill="#313b45"><path d="m0 472c0 4.425781 3.574219 8 8 8h184c4.425781 0 8-3.574219 8-8v-36.6875l37.65625-37.65625c1.503906-1.496094 2.34375-3.527344 2.34375-5.65625v-8h40c22.054688 0 40-17.945312 40-40v-304c0-22.054688-17.945312-40-40-40h-208c-22.054688 0-40 17.945312-40 40v244.6875l-29.65625 29.65625c-1.503906 1.496094-2.34375 3.527344-2.34375 5.65625zm280-104h-168v-32h192v8c0 13.230469-10.769531 24-24 24zm-208-352h208c13.230469 0 24 10.769531 24 24v8h-256v-8c0-13.230469 10.769531-24 24-24zm-24 48h256v256h-188.6875l32.40625-32.40625c7.921875-7.921875 12.28125-18.457031 12.28125-29.65625 0-23.121094-18.816406-41.9375-41.9375-41.9375-11.199219 0-21.734375 4.359375-29.65625 12.28125l-40.40625 40.40625zm-32 259.3125 83.71875-83.71875c4.898438-4.898438 11.417969-7.59375 18.34375-7.59375 14.304688 0 25.9375 11.632812 25.9375 25.9375 0 6.925781-2.695312 13.445312-7.59375 18.34375l-38.0625 38.0625c-1.503906 1.496094-2.34375 3.527344-2.34375 5.65625v52.6875l-29.65625 29.65625 11.3125 11.3125 29.65625-29.65625h116.6875v4.6875l-37.65625 37.65625c-1.503906 1.496094-2.34375 3.527344-2.34375 5.65625v32h-168zm0 0"/><path d="m240 120h16v-24c0-4.425781-3.574219-8-8-8h-24v16h16zm0 0"/><path d="m224 224v16h24c4.425781 0 8-3.574219 8-8v-24h-16v16zm0 0"/><path d="m104 104h24v-16h-32c-4.425781 0-8 3.574219-8 8v24h16zm0 0"/><path d="m184 88h24v16h-24zm0 0"/><path d="m144 88h16v32h-16zm0 0"/><path d="m208 120v32c0 4.425781 3.574219 8 8 8h40v-16h-32v-24zm0 0"/><path d="m256 176h-48c-4.425781 0-8 3.574219-8 8v24h16v-16h40zm0 0"/><path d="m208 224h-24v-8h-16v16c0 4.425781 3.574219 8 8 8h32zm0 0"/><path d="m176 120h16v48h-16zm0 0"/><path d="m184 184h-24v-16h-16v24c0 4.425781 3.574219 8 8 8h32zm0 0"/><path d="m120 120v24c0 4.425781 3.574219 8 8 8h32v-16h-24v-16zm0 0"/><path d="m104 152h8v-16h-16c-4.425781 0-8 3.574219-8 8v24h16zm0 0"/><path d="m120 168h16v16h-16zm0 0"/><path d="m96 208h32v-16h-24v-8h-16v16c0 4.425781 3.574219 8 8 8zm0 0"/><path d="m213.65625 266.34375-11.3125 11.3125 24 24c1.558594 1.558594 3.609375 2.34375 5.65625 2.34375s4.097656-.785156 5.65625-2.34375l48-48-11.3125-11.3125-42.34375 42.34375zm0 0"/><path d="m0 264h16v16h-16zm0 0"/><path d="m0 232h16v16h-16zm0 0"/><path d="m0 200h16v16h-16zm0 0"/></g></svg>