<svg height="480pt" viewBox="0 0 480 480" width="480pt" xmlns="http://www.w3.org/2000/svg"><path d="m304 392h168v80h-168zm0 0" fill="#577399"/><path d="m382.640625 270.640625-22.640625-22.640625v-56l-38.078125-38.078125c-6.320313-6.320313-9.921875-14.960937-9.921875-24 0-9.363281 3.839844-17.84375 9.921875-24 6.15625-6.082031 14.636719-9.921875 24-9.921875 9.039063 0 17.679687 3.601562 24 9.921875l102.078125 102.078125v184h-168v-40l-40-40v-32h96c8.800781 0 16.800781-3.601562 22.640625-9.359375zm0 0" fill="#f3f3fb"/><path d="m392 40v88l-22.078125-22.078125c-6.320313-6.320313-14.960937-9.921875-24-9.921875-9.363281 0-17.84375 3.839844-24 9.921875-6.082031 6.15625-9.921875 14.636719-9.921875 24 0 9.039063 3.601562 17.679687 9.921875 24l38.078125 38.078125v56l22.640625 22.640625c-5.839844 5.757813-13.839844 9.359375-22.640625 9.359375h-320c-17.679688 0-32-14.320312-32-32v-208c0-17.679688 14.320312-32 32-32h320c17.679688 0 32 14.320312 32 32zm0 0" fill="#ef6461"/><g fill="#313b45"><path d="m400 124.6875v-84.6875c0-22.054688-17.945312-40-40-40h-320c-22.054688 0-40 17.945312-40 40v208c0 22.054688 17.945312 40 40 40h216v24c0 2.128906.839844 4.160156 2.34375 5.65625l37.65625 37.65625v116.6875c0 4.425781 3.574219 8 8 8h168c4.425781 0 8-3.574219 8-8v-264c0-2.128906-.839844-4.160156-2.34375-5.65625zm-384 123.3125v-208c0-13.230469 10.769531-24 24-24h320c13.230469 0 24 10.769531 24 24v68.6875l-8.40625-8.40625c-7.921875-7.921875-18.449219-12.28125-29.65625-12.28125-23.121094 0-41.9375 18.816406-41.9375 41.9375 0 11.199219 4.359375 21.734375 12.28125 29.65625l35.71875 35.71875v52.6875c0 2.128906.839844 4.160156 2.34375 5.65625l15.929688 15.929688c-3.203126 1.527343-6.664063 2.414062-10.273438 2.414062h-320c-13.230469 0-24-10.769531-24-24zm256 60.6875v-20.6875h88c7.921875 0 15.527344-2.320312 22.046875-6.632812l12.289063 12.289062 11.3125-11.3125-37.648438-37.65625v-52.6875c0-2.128906-.839844-4.160156-2.34375-5.65625l-38.0625-38.0625c-4.898438-4.898438-7.59375-11.417969-7.59375-18.34375 0-14.304688 11.632812-25.9375 25.9375-25.9375 6.925781 0 13.445312 2.695312 18.34375 7.59375l99.71875 99.71875v172.6875h-152v-32c0-2.128906-.839844-4.160156-2.34375-5.65625zm40 155.3125v-64h152v64zm0 0"/><path d="m42.34375 90.34375 11.3125 11.3125 18.34375-18.34375 18.34375 18.34375 11.3125-11.3125-14.015625-14.015625 18.296875-4.566406-3.875-15.523438-22.0625 5.515625v-21.753906h-16v21.753906l-22.0625-5.515625-3.875 15.523438 18.296875 4.566406zm0 0"/><path d="m138.34375 90.34375 11.3125 11.3125 18.34375-18.34375 18.34375 18.34375 11.3125-11.3125-14.015625-14.015625 18.296875-4.566406-3.875-15.523438-22.0625 5.515625v-21.753906h-16v21.753906l-22.0625-5.515625-3.875 15.523438 18.296875 4.566406zm0 0"/><path d="m294.0625 56.238281-22.0625 5.515625v-21.753906h-16v21.753906l-22.0625-5.515625-3.875 15.523438 18.296875 4.566406-14.015625 14.015625 11.3125 11.3125 18.34375-18.34375 18.34375 18.34375 11.3125-11.3125-14.015625-14.015625 18.296875-4.566406zm0 0"/><path d="m90.34375 181.65625 11.3125-11.3125-14.015625-14.015625 18.296875-4.566406-3.875-15.523438-22.0625 5.515625v-21.753906h-16v21.753906l-22.0625-5.515625-3.875 15.523438 18.296875 4.566406-14.015625 14.015625 11.3125 11.3125 18.34375-18.34375zm0 0"/><path d="m149.65625 181.65625 18.34375-18.34375 18.34375 18.34375 11.3125-11.3125-14.015625-14.015625 18.296875-4.566406-3.875-15.523438-22.0625 5.515625v-21.753906h-16v21.753906l-22.0625-5.515625-3.875 15.523438 18.296875 4.566406-14.015625 14.015625zm0 0"/><path d="m64 240h64v16h-64zm0 0"/><path d="m144 240h64v16h-64zm0 0"/><path d="m64 208h16v16h-16zm0 0"/><path d="m96 208h16v16h-16zm0 0"/><path d="m328 416h16v16h-16zm0 0"/></g></svg>