<svg id="Capa_1" enable-background="new 0 0 512 512" height="512" viewBox="0 0 512 512" width="512" xmlns="http://www.w3.org/2000/svg"><g><g><path d="m279.843 115.752c0-59.8-56.51-108.279-126.219-108.279s-126.219 48.479-126.219 108.279c0 59.801 56.51 108.279 126.219 108.279 8.2 0 16.217-.673 23.98-1.956 11.476-1.896 23.166 1.769 31.391 9.994l29.055 29.055c1.923 1.923 5.21.561 5.21-2.158v-51.878c0-8.924 3.274-17.577 9.33-24.131 17.062-18.465 27.253-41.813 27.253-67.205z" fill="#b3d8fb"/></g><g><g><path d="m153.624 7.474c-5.167 0-10.259.273-15.263.79 62.51 6.465 110.956 52.12 110.956 107.488 0 25.391-10.191 48.739-27.252 67.203-6.057 6.554-9.331 15.207-9.331 24.131v28.721l25.316 25.316c1.923 1.923 5.21.561 5.21-2.158v-51.878c0-8.924 3.274-17.577 9.33-24.131 17.062-18.464 27.253-41.812 27.253-67.203 0-59.801-56.51-108.279-126.219-108.279z" fill="#89c6fc"/></g></g><g><g><path d="m156.059 58.622 13.155 26.655c.947 1.92 2.779 3.25 4.897 3.558l29.416 4.274c5.335.775 7.465 7.331 3.605 11.094l-21.285 20.748c-1.533 1.494-2.232 3.647-1.871 5.757l5.024 29.296c.911 5.313-4.665 9.365-9.437 6.856l-26.31-13.832c-1.895-.996-4.158-.996-6.053 0l-26.31 13.832c-4.772 2.509-10.348-1.543-9.437-6.856l5.025-29.297c.362-2.11-.338-4.263-1.871-5.757l-21.285-20.748c-3.86-3.763-1.73-10.319 3.605-11.094l29.416-4.274c2.118-.308 3.95-1.638 4.897-3.558l13.155-26.655c2.385-4.834 9.278-4.834 11.664.001z" fill="#fce25c"/></g><g><g><path d="m207.131 104.203c3.86-3.763 1.73-10.319-3.605-11.094l-8.354-1.214-26.805 26.129c-1.947 1.897-2.835 4.631-2.375 7.31l6.38 37.201c.033.195.037.382.057.574l7.135 3.751c4.771 2.508 10.348-1.543 9.437-6.856l-5.025-29.297c-.362-2.11.338-4.263 1.87-5.757z" fill="#f9c301"/></g></g></g><g><path d="m484.596 286.47c0-89.15-84.245-161.42-188.166-161.42s-188.166 72.271-188.166 161.42c0 89.15 84.245 161.42 188.166 161.42 12.225 0 24.176-1.003 35.75-2.916 17.108-2.827 34.536 2.637 46.797 14.898l43.314 43.314c2.866 2.866 7.768.836 7.768-3.217v-77.339c0-13.304 4.881-26.203 13.91-35.975 25.434-27.524 40.627-62.331 40.627-100.185z" fill="#d8eafb"/></g><g><g><path d="m296.429 125.05c-7.703 0-15.294.407-22.754 1.178 93.19 9.637 165.412 77.7 165.412 160.242 0 37.853-15.193 72.66-40.628 100.186-9.029 9.771-13.91 22.67-13.91 35.975v42.817l37.74 37.74c2.866 2.866 7.768.836 7.768-3.217v-77.339c0-13.304 4.88-26.203 13.91-35.975 25.435-27.526 40.628-62.333 40.628-100.186.001-89.15-84.244-161.421-188.166-161.421z" fill="#b3d8fb"/></g></g><g><path d="m376.877 250.205c-3.269-2.251-7.138-3.451-11.107-3.439-10.092.03-30.079.087-39.169.087-3.981 0-7.962 0-12.151 0 .987-7.641 2.143-14.848 2.805-22.1 1.093-11.976.682-23.822-5.888-34.479-7.194-11.668-18.435-15.711-30.58-11.402-2.142.76-3.037 1.677-2.77 4.136 1.043 9.608 2.007 19.231 2.642 28.872.179 2.719-.223 5.848-1.448 8.229-9.471 18.407-19.256 36.652-28.781 55.032-16.404.01-36.518-.002-43.576-.106-4.839-.059-8.798 3.853-8.798 8.692v73.923c0 4.838 3.958 8.748 8.796 8.688 12.65-.184 67.235-.076 67.235-.076v-.08c25.207.221 50.42.196 75.627-.054 10.68-.106 18.759-9.735 17.593-19.957-.245-2.147-.965-4.24-1.462-6.341 19.483-6.894 12.634-27.518 12.634-27.518s9.957-4.782 9.957-15.705-7.803-15.979-7.803-15.979c8.118-9.218 6.36-23.457-3.756-30.423z" fill="#1690fb"/></g><g><g><path d="m388.435 296.606c0-10.923-7.803-15.979-7.803-15.979 8.119-9.216 6.361-23.456-3.755-30.421-3.269-2.251-7.138-3.451-11.107-3.439-1.284.004-2.73.008-4.292.013 1.84 6.449.532 13.701-4.297 19.184s7.803 5.057 7.803 15.979c0 10.923-9.957 15.705-9.957 15.705s6.849 20.625-12.634 27.518c.497 2.102 1.217 4.195 1.462 6.341 1.166 10.222-6.913 19.85-17.593 19.957-25.207.251-50.419.275-75.627.054v.08s-31.901-.063-52.579-.011v6.062c0 4.838 3.958 8.748 8.796 8.688 12.65-.184 67.235-.076 67.235-.076v-.08c25.208.221 50.42.196 75.627-.054 10.68-.106 18.759-9.735 17.593-19.957-.245-2.147-.965-4.239-1.462-6.341 19.483-6.894 12.634-27.518 12.634-27.518s9.956-4.782 9.956-15.705z" fill="#0571f9"/></g></g><g><path d="m449.331 181.065c-2.863-3.093-7.73-3.217-10.748-.228-2.886 2.859-2.799 7.591-.044 10.576 25.241 27.344 38.581 60.209 38.581 95.058 0 34.866-13.363 67.756-38.643 95.114-10.25 11.092-15.894 25.669-15.894 41.047v70.279l-38.323-38.321c-13.861-13.862-33.786-20.218-53.301-16.988-11.307 1.869-22.925 2.815-34.531 2.815-99.634 0-180.692-69.06-180.692-153.946s81.058-153.946 180.692-153.946c43.01 0 84.683 13.106 117.343 36.903 3.589 2.617 8.728 1.567 10.954-2.441 1.864-3.356.689-7.579-2.418-9.834-35.157-25.523-79.847-39.577-125.88-39.577-3.057 0-6.103.065-9.137.185.013-.67.025-1.34.025-2.008.002-63.826-59.972-115.753-133.691-115.753s-133.694 51.927-133.694 115.753c0 9.173 1.243 18.307 3.694 27.149 2.286 8.604 16.273 6.194 14.319-4.309-2.034-7.442-3.065-15.125-3.065-22.84 0-55.584 53.269-100.804 118.745-100.804s118.745 45.22 118.745 100.804c0 1.027-.041 2.058-.077 3.087-28.1 2.966-54.828 11.107-78.676 23.863l-2.188-12.756 20.614-20.094c3.85-3.753 5.497-9.356 3.888-14.486-1.622-5.172-5.977-8.877-11.329-9.654l-28.911-4.201-12.929-26.198c-2.372-4.806-7.175-7.792-12.535-7.792-5.359 0-10.163 2.986-12.535 7.792l-12.929 26.198-28.91 4.201c-5.353.777-9.708 4.483-11.33 9.654-1.609 5.13.038 10.734 3.888 14.487l20.614 20.094-5.301 30.905c-1.06 6.589 7.543 14.778 14.126 14.246 2.221 0 4.454-.536 6.518-1.62l25.858-13.595 10.058 5.287c-.592.495-1.189.984-1.775 1.486-15.826 13.577-28.616 29.079-38.106 45.893-29.138-7.217-54.286-23.918-69.625-46.407-2.292-3.36-6.867-4.538-10.313-2.376-3.604 2.261-4.588 7.037-2.221 10.529 16.799 24.785 43.895 43.363 75.302 51.914-8.375 18.98-12.758 39.323-12.758 60.262 0 45.332 20.499 87.884 57.72 119.814 36.894 31.651 85.875 49.081 137.92 49.081 12.42 0 24.857-1.015 36.968-3.016 14.77-2.436 29.832 2.349 40.294 12.81l43.315 43.314c2.306 2.306 5.367 3.528 8.49 3.527 4.284-.239 11.51-3.317 12.037-10.501v-78.868c0-11.606 4.235-22.58 11.925-30.902 27.877-30.168 42.612-66.566 42.612-105.259.003-38.211-15.176-75.645-42.736-105.407zm-292.599-34.651c-4.074-2.143-8.937-2.142-13.011-.001l-24.57 12.917 4.692-27.358c.778-4.534-.725-9.16-4.02-12.374l-19.877-19.375 27.469-3.992c4.554-.661 8.488-3.519 10.526-7.647l12.285-24.893 12.285 24.894c2.037 4.126 5.972 6.985 10.524 7.646l27.47 3.992-19.877 19.376c-3.295 3.213-4.798 7.838-4.02 12.372l3.228 18.821c-2.193 1.41-4.358 2.861-6.49 4.355z"/><path d="m395.91 296.606c0-7.27-2.661-12.988-5.68-16.944 2.466-4.897 3.465-10.466 2.781-16.006-.979-7.93-5.315-15.076-11.895-19.606-4.521-3.113-9.803-4.757-15.281-4.757-.029 0-.059 0-.088 0-10.086.03-30.062.087-39.146.087h-3.592c.654-4.734 1.262-9.263 1.689-13.947 1.091-11.966 1.117-25.965-6.969-39.081-9.033-14.65-23.779-20.083-39.444-14.522-7.541 2.678-8.06 8.66-7.699 11.985.923 8.511 1.956 18.558 2.614 28.558.125 1.887-.23 3.528-.636 4.317-5.17 10.049-23.024 43.967-26.676 50.98-15.079.015-32.523-.013-38.945-.107-4.38-.044-8.458 1.605-11.557 4.666-3.099 3.062-4.805 7.145-4.805 11.499v73.923c0 4.353 1.707 8.437 4.805 11.497 3.05 3.013 7.074 4.666 11.369 4.665.069 0 .137 0 .206-.001 4.051-.059 12.813-.094 26.045-.103 4.128-.003 7.472-3.352 7.469-7.479-.003-4.126-3.349-7.469-7.474-7.469-.001 0-.003 0-.005 0-13.3.01-22.133.045-26.235.105-.293-.213-.674.371-1.23-1.215v-73.923c0-.418.198-.702.363-.865.163-.162.444-.353.836-.353h.014c7.154.105 27.707.119 43.691.107 2.791-.002 5.348-1.557 6.631-4.035 4.298-8.294 23.589-44.941 28.791-55.052 2.36-4.587 2.429-9.574 2.26-12.14-.6-9.111-1.495-18.197-2.348-26.207 7.832-1.842 14.444 1.243 19.236 9.015 5.782 9.378 5.675 20.365 4.807 29.877-.439 4.807-1.104 9.606-1.808 14.686-.889 4.719-2.938 15.03 6.446 15.568h12.151c9.095 0 29.093-.056 39.193-.087 2.471-.036 4.819.725 6.845 2.121 3.108 2.139 5.074 5.381 5.537 9.126.462 3.745-.657 7.366-3.151 10.197-1.47 1.669-2.244 3.831-1.898 6.027.343 2.176 1.506 4.014 3.385 5.152.553.415 4.451 3.551 4.451 9.742 0 5.958-5.567 8.887-5.719 8.967-3.5 1.57-5.083 5.402-3.874 9.043.013.04 1.25 4.028.629 8.345-.699 4.86-3.446 7.981-8.646 9.822-3.598 1.273-5.659 5.053-4.78 8.768 2.8 5.876.825 16.851-8.932 17.102-25.374.252-78.96.115-81.316.113-.003 0-.005 0-.008 0-4.124 0-7.47 3.341-7.474 7.466-.004 4.128 3.339 7.478 7.466 7.482 2.962.003 56.448.136 81.48-.113 7.099-.071 13.899-3.202 18.657-8.588 4.803-5.436 7.094-12.614 6.286-19.69-.054-.474-.122-.936-.2-1.387 11.087-6.861 13.599-18.843 12.33-28.312 4.514-3.853 9.048-10.227 9.048-19.019z"/></g></g></svg>