<svg id="Capa_1" enable-background="new 0 0 512 512" height="512" viewBox="0 0 512 512" width="512" xmlns="http://www.w3.org/2000/svg"><g><g><path d="m87.809 175.342-5.008 6.142v260.785c0 17.209 13.951 31.16 31.16 31.16h284.079c17.209 0 31.16-13.951 31.16-31.16v-260.785l-5.008-6.142z" fill="#d8eafb"/></g><g><path d="m378.177 175.342v215.905c0 17.209-13.951 31.16-31.16 31.16h-264.216v19.863c0 17.209 13.951 31.16 31.16 31.16h284.079c17.209 0 31.16-13.951 31.16-31.16v-260.786l-5.008-6.142z" fill="#b3d8fb"/></g><g><path d="m398.039 95.492h-284.079c-17.209 0-31.16 13.951-31.16 31.16v54.833h346.399v-54.833c0-17.21-13.95-31.16-31.16-31.16z" fill="#1690fb"/></g><g><path d="m398.039 95.492h-19.863v85.992h51.022v-54.833c.001-17.209-13.949-31.159-31.159-31.159z" fill="#0571f9"/></g><g><g><g><g><path d="m324.669 359.547c0-37.504-30.403-67.907-67.907-67.907s-67.907 30.403-67.907 67.907c0 47.093 38.127 48.654 38.127 93.055 0 30.351 16.793 45.723 25.158 51.497 1.836 1.267 4.323-.163 4.165-2.388-.934-13.209-1.769-47.198 14.381-47.198 32.002 0-2.342-53.077 32.002-53.077 18.18 0 21.981-29.915 21.981-41.889z" fill="#fce25c"/></g></g></g><g><g><g><path d="m302.688 401.436c-34.344 0 0 53.077-32.002 53.077-16.151 0-15.315 33.989-14.381 47.198.157 2.226-2.329 3.656-4.165 2.388-3.478-2.401-8.414-6.464-12.993-12.571-.363-15.511 1.294-39.141 14.761-39.141 32.002 0-2.342-53.077 32.002-53.077 18.18 0 21.98-29.915 21.98-41.889 0-31.659-21.664-58.257-50.977-65.779 37.434.082 67.756 30.452 67.756 67.905 0 11.974-3.801 41.889-21.981 41.889z" fill="#f9c301"/></g></g></g><g><g><g><path d="m273.07 368.194c-14.303 0-15.284 26.658-14.673 41.931.179 4.481-5.073 7.026-8.467 4.095-8.746-7.555-20.565-22.475-20.565-47.937 0-25.852-12.924-37.183-23.723-51.433 12.447-14.224 30.733-23.21 51.12-23.21 20.391 0 38.681 8.99 51.128 23.219-.899.167-1.836.258-2.818.258-34.344 0 0 53.077-32.002 53.077z" fill="#f9c301"/></g></g></g><g><path d="m256.922 291.644c15.508 3.982 28.871 13.305 38.021 25.89 2.433-1.532 5.709-2.417 10.129-2.417.981 0 1.919-.091 2.818-.258-12.415-14.192-30.642-23.168-50.968-23.215z" fill="#d4a806"/></g></g><g><path d="m306.698 304.589h-100.194v-141.688c0-39.043 7.311-77.742 21.555-114.094l11.671-29.786c6.013-15.345 27.729-15.345 33.741 0l11.671 29.786c14.244 36.352 21.555 75.05 21.555 114.094v141.688z" fill="#dd636e"/></g><g><path d="m285.143 48.807-11.671-29.786c-4.319-11.021-16.736-14.126-25.62-9.316 3.486 1.887 6.427 4.992 8.122 9.316l11.671 29.786c14.244 36.352 21.555 75.05 21.555 114.094v141.688h17.498v-141.688c0-39.043-7.311-77.742-21.555-114.094z" fill="#d82e3d"/></g><g><circle cx="256.601" cy="157.707" fill="#465961" r="17.634"/></g><g><path d="m220.32 215.157-35.614 28.531c-6.356 5.092-10.056 12.796-10.056 20.941v63.888c0 4.62 5.345 7.186 8.951 4.298l35.614-28.531c6.356-5.092 10.056-12.796 10.056-20.941v-63.888c0-4.619-5.345-7.186-8.951-4.298z" fill="#dd636e"/></g><g><path d="m292.882 215.157 35.614 28.531c6.357 5.092 10.056 12.796 10.056 20.941v63.888c0 4.62-5.345 7.186-8.951 4.298l-35.614-28.531c-6.357-5.092-10.056-12.796-10.056-20.941v-63.888c0-4.619 5.345-7.186 8.951-4.298z" fill="#dd636e"/></g><g><path d="m220.32 215.157-12.094 9.689v46.561c0 8.145-3.699 15.849-10.056 20.941l-23.52 18.843v17.327c0 4.62 5.345 7.186 8.951 4.298l35.614-28.531c6.356-5.093 10.056-12.796 10.056-20.941v-63.887c0-4.621-5.345-7.188-8.951-4.3z" fill="#d82e3d"/></g><g><path d="m328.495 243.689-10.988-8.803v47.64c0 4.62-5.345 7.186-8.951 4.298l-24.625-19.728v16.248c0 8.145 3.699 15.849 10.056 20.941l35.614 28.531c3.605 2.888 8.951.322 8.951-4.298v-63.888c-.001-8.145-3.7-15.849-10.057-20.941z" fill="#d82e3d"/></g><g><path d="m398.039 87.98h-92.705c-3.421-14.195-7.817-28.185-13.197-41.913l-11.671-29.785c-3.876-9.891-13.243-16.282-23.865-16.282s-19.989 6.391-23.865 16.281l-11.671 29.785c-5.379 13.728-9.775 27.719-13.196 41.913h-93.908c-21.324 0-38.672 17.348-38.672 38.672v315.617c0 21.324 17.348 38.673 38.672 38.673h110.751c6.493 16.13 17.4 25.363 23.161 29.339 5.428 4.326 16.414.198 15.926-9.101-1.317-18.622.588-33.611 4.854-38.189.753-.808 1.316-.966 2.035-.966 6.914 0 12.386-2.011 16.263-5.976 6.846-7.002 6.612-17.442 6.385-27.54-.157-6.957-.334-14.842 2.432-17.67 1.227-1.254 3.555-1.89 6.921-1.89 6.418 0 18.185-2.784 24.878-21.428 3.403-9.476 4.615-20.664 4.615-27.974 0-6.23-.788-12.404-2.293-18.384 1.068.197 4.484.975 8.792-.908 4.555-2.187 7.384-6.685 7.384-11.737v-63.887c0-10.482-4.691-20.251-12.871-26.804l-18.982-15.207v-33.623h28.279c4.149 0 7.512-3.363 7.512-7.512s-3.363-7.512-7.512-7.512h-28.279v-11.071c0-20.225-1.89-40.237-5.633-59.897h89.461c13.04 0 23.648 10.608 23.648 23.647v47.32h-43.703c-4.149 0-7.512 3.363-7.512 7.512s3.363 7.512 7.512 7.512h43.703v253.272c0 13.04-10.608 23.648-23.647 23.648h-105.507c-4.149 0-7.512 3.363-7.512 7.512s3.363 7.512 7.512 7.512h105.506c21.323 0 38.672-17.348 38.672-38.673v-315.615c0-21.323-17.349-38.671-38.673-38.671zm-176.28 195.363c0 5.896-2.639 11.392-7.241 15.078l-32.355 25.922v-59.713c0-5.896 2.639-11.391 7.241-15.078l32.355-25.921zm-131.446-156.692c0-13.04 10.608-23.647 23.648-23.647h90.664c-3.743 19.661-5.633 39.672-5.633 59.897v11.071h-108.679zm23.648 339.266c-13.04 0-23.648-10.609-23.648-23.648v-253.273h108.679v33.423c0 .065.008.128.01.192l-18.991 15.215c-8.18 6.554-12.872 16.323-12.872 26.804v63.888c0 5.052 2.829 9.55 7.383 11.737 1.468.361 3.272 1.997 9.134.812-1.519 6.004-2.313 12.209-2.313 18.48 0 26.545 11.235 40.479 21.148 52.774 9.11 11.299 16.979 21.058 16.979 40.281 0 4.763.393 9.189 1.073 13.315zm188.727-71.993c-7.561 0-13.504 2.157-17.663 6.41-7.185 7.349-6.933 18.592-6.71 28.512.142 6.334.319 14.218-2.107 16.699-1.177 1.204-3.652 1.456-5.522 1.456-5.018 0-9.523 1.988-13.027 5.749-7.479 8.027-9.41 23.618-9.305 38.169-6.942-7.508-13.861-19.669-13.861-38.317 0-24.525-10.788-37.906-20.307-49.711-9.562-11.86-17.82-22.102-17.82-43.344 0-13.986 4.883-27.572 13.746-38.344l11.361-9.102h27.615v21.935c0 4.149 3.363 7.512 7.512 7.512s7.512-3.363 7.512-7.512v-21.935h25.52c-.784.588-1.537 1.212-2.224 1.914-7.185 7.349-6.933 18.592-6.71 28.512.142 6.334.319 14.218-2.107 16.699-1.177 1.204-3.652 1.456-5.522 1.456-4.911 0-9.342 1.909-12.813 5.522-6.444 6.708-9.635 19.602-9.507 38.371-7.034-7.629-13.873-19.803-13.873-38.292 0-8.864-1.369-16.775-4.186-24.184-1.474-3.879-5.814-5.826-9.691-4.353-3.878 1.475-5.827 5.813-4.352 9.691 2.157 5.674 3.205 11.838 3.205 18.846 0 29.243 14.515 46.148 23.166 53.622 4.134 2.608 6.925 4.378 13.739 1.817 4.542-2.19 7.347-6.86 7.144-11.897-.788-19.685 2.164-30.063 5.188-33.212.729-.758 1.277-.907 1.979-.907 6.914 0 12.386-2.011 16.264-5.976 6.846-7.001 6.612-17.442 6.385-27.539-.156-6.957-.334-14.843 2.432-17.671 1.161-1.187 3.322-1.813 6.405-1.877 8.13 10.522 12.601 23.557 12.601 36.904.002 10.769-3.642 34.377-14.467 34.377zm28.351-129.294v59.713l-32.356-25.922c-4.601-3.686-7.24-9.182-7.24-15.078v-59.713l32.356 25.922c4.601 3.685 7.24 9.181 7.24 15.078zm-33.46-55.336c-3.943-3.157-9.222-3.763-13.776-1.576-4.555 2.187-7.384 6.685-7.384 11.737v63.888c0 4.81.999 9.465 2.858 13.733h-15.164v-74.657c0-4.149-3.363-7.512-7.512-7.512s-7.512 3.363-7.512 7.512v74.657h-15.164c1.86-4.268 2.858-8.923 2.858-13.733v-63.888c0-5.052-2.829-9.55-7.383-11.737s-9.834-1.584-13.776 1.576l-1.608 1.288v-47.681c0-38.263 7.078-75.728 21.037-111.353l11.671-29.785c2.45-6.252 8.179-6.738 9.876-6.738 1.698 0 7.427.486 9.877 6.738l11.671 29.785c13.96 35.625 21.038 73.089 21.038 111.353v47.681z"/><path d="m256.601 132.561c-13.866 0-25.146 11.281-25.146 25.146s11.28 25.146 25.146 25.146c13.865 0 25.146-11.281 25.146-25.146s-11.281-25.146-25.146-25.146zm0 35.268c-5.581 0-10.122-4.541-10.122-10.122s4.541-10.122 10.122-10.122 10.122 4.541 10.122 10.122c0 5.582-4.541 10.122-10.122 10.122z"/></g></g></svg>