<svg id="Capa_1" enable-background="new 0 0 512 512" height="512" viewBox="0 0 512 512" width="512" xmlns="http://www.w3.org/2000/svg"><g><g><path d="m216.499 215.418 140.851-120.863 6.197-26.184c-37.634-37.635-89.62-60.918-147.048-60.918-114.856 0-207.966 93.109-207.966 207.966l31.609 17.354z" fill="#dd636e"/></g><g><path d="m216.499 215.418h-207.966c0 34.127 8.22 66.333 22.788 94.748z" fill="#fceed9"/></g><g><path d="m31.321 310.167c34.462 67.218 104.448 113.217 185.178 113.217v-207.966z" fill="#f9c301"/></g><g><path d="m216.499 215.418 147.054-147.054c37.634 37.634 60.912 89.626 60.912 147.054 0 114.856-93.109 207.966-207.966 207.966z" fill="#1690fb"/></g><g><path d="m365.419 70.275c21.217 32.596 33.555 71.502 33.555 113.295 0 106.226-79.645 193.84-182.475 206.409v33.405c114.856 0 207.966-93.109 207.966-207.966 0-56.468-22.516-107.668-59.046-145.143z" fill="#0571f9"/></g><g><path d="m500.618 483.887-17.812 17.812c-3.776 3.776-9.897 3.776-13.673 0l-74.264-74.264 31.485-31.485 74.264 74.264c3.776 3.776 3.776 9.897 0 13.673z" fill="#9d6b6b"/></g><g><path d="m500.662 470.257-74.308-74.308-13.088 13.088 61.22 61.22c3.752 3.752 3.752 9.834 0 13.586l-11.604 11.604 6.295 6.295c3.752 3.752 9.834 3.752 13.586 0l17.899-17.899c3.751-3.751 3.751-9.834 0-13.586z" fill="#785252"/></g><g><circle cx="359.628" cy="360.709" fill="#d8eafb" r="102.283"/></g><g><path d="m415.738 275.168c-39.685-26.089-93.533-21.685-128.434 13.216-34.529 34.528-39.203 87.599-14.038 127.156 68.22-19.314 122.168-72.574 142.472-140.372z" fill="#b3d8fb"/></g><g><path d="m383.928 261.343c-22.378 55.451-67.964 99.042-124.729 118.736 2.382 12.406 7.066 24.457 14.066 35.461 68.22-19.314 122.168-72.574 142.472-140.372-9.893-6.504-20.668-11.111-31.809-13.825z" fill="#89c6fc"/></g><g><path d="m431.953 288.384c-7.08-7.08-14.942-12.898-23.305-17.469 21.214 38.819 15.396 88.481-17.468 121.345s-82.526 38.683-121.345 17.468c4.57 8.363 10.389 16.225 17.468 23.305 39.944 39.944 104.706 39.944 144.65 0 39.944-39.943 39.944-104.705 0-144.649z" fill="#b3d8fb"/></g><g><path d="m191.008 391.536c-58.408 0-111.182-24.089-148.958-62.861 37.089 57.011 101.366 94.71 174.448 94.71v-33.405c-8.354 1.02-16.859 1.556-25.49 1.556z" fill="#d4a806"/></g><path d="m505.932 464.988-50.558-50.558c15-26.575 18.361-58.491 8.355-88.508-1.302-3.905-5.521-6.016-9.427-4.714-3.905 1.302-6.014 5.522-4.713 9.427 9.182 27.544 5.34 56.935-9.735 80.69-.132.189-.252.383-.364.581-3.639 5.644-7.912 10.966-12.806 15.86-18.489 18.489-42.768 27.733-67.055 27.731-24.281-.002-48.571-9.246-67.055-27.731-2.345-2.345-4.539-4.785-6.586-7.305 30.794-10.473 59.115-27.912 82.429-50.895 23.283-22.952 41.115-50.982 52.042-81.579 2.134 1.788 4.22 3.663 6.225 5.668 3.133 3.133 6.063 6.499 8.709 10.003 2.48 3.284 7.154 3.938 10.438 1.457 3.285-2.48 3.937-7.153 1.457-10.438-3.06-4.052-6.446-7.941-10.063-11.56-4.057-4.057-8.356-7.727-12.85-11.015 5.003-18.391 7.543-37.444 7.543-56.682 0-57.541-22.407-111.638-63.094-152.324-.051-.051-.107-.094-.159-.144-40.673-40.596-94.703-62.952-152.167-62.952-55.332 0-107.922 20.943-148.083 58.969-2.989 2.83-3.118 7.547-.288 10.536 2.833 2.989 7.547 3.116 10.535.288 37.382-35.395 86.333-54.888 137.837-54.888 51.062 0 99.204 18.976 136.403 53.571l-139.49 139.49h-197.286c1.509-41.887 15.731-81.413 41.373-114.731 2.51-3.261 1.901-7.94-1.36-10.451-3.262-2.51-7.939-1.9-10.451 1.36-29.183 37.917-44.608 83.311-44.608 131.274 0 34.569 7.943 67.591 23.61 98.148 35.422 70.587 112.152 118.055 191.809 117.27 18.141 0 36.148-2.264 53.563-6.721 3.528 4.979 7.514 9.731 11.972 14.188 21.393 21.393 49.494 32.089 77.595 32.089 18.539 0 37.077-4.659 53.689-13.97l50.589 50.59c3.326 3.325 7.694 4.987 12.063 4.987s8.737-1.663 12.063-4.988l17.899-17.899c6.65-6.65 6.65-17.473 0-24.124zm-489.814-242.117h169.455l-114.866 58.773-36.03 18.435c-11.365-24.313-17.594-50.221-18.559-77.208zm200.38 193.061c-73.117 0-139.506-39.117-175.022-102.59l167.57-85.739v158.654c0 4.116 3.336 7.452 7.452 7.452s7.452-3.337 7.452-7.452v-167.752l139.508-139.506c34.593 37.198 53.555 85.35 53.555 136.419 0 16.391-1.976 32.634-5.877 48.388-41.477-22.016-94.209-15.583-129.102 19.309-34.483 34.483-41.166 86.392-20.066 127.639-14.835 3.436-30.099 5.178-45.47 5.178zm76.075-122.278c31.165-31.167 78.807-36.059 115.151-14.683-20.278 60.741-69.507 109.249-130.517 128.607-20.56-36.184-15.453-83.105 15.366-113.924zm202.819 184.92-17.899 17.899c-.839.84-2.208.838-3.046 0l-48.405-48.406c3.891-2.962 7.631-6.212 11.182-9.764 3.54-3.54 6.793-7.278 9.77-11.174l48.397 48.397c.841.841.841 2.208.001 3.048z"/></g></svg>