<svg id="Capa_1" enable-background="new 0 0 512 512" height="512" viewBox="0 0 512 512" width="512" xmlns="http://www.w3.org/2000/svg"><g><g><path d="m243.748 439.824c6.335 5.413 15.666 5.413 22.001 0l142.483-121.749 8.623-23.02v-3.331c0-2.462-1.078-4.8-2.95-6.399l-149.273-127.489c-5.692-4.863-14.076-4.863-19.767 0l-149.273 127.489c-1.872 1.599-2.95 3.937-2.95 6.399v3.331l8.423 22.85z" fill="#e7b467"/></g><g><path d="m383.314 291.724v47.643l24.918-21.292 8.623-23.02v-3.331c0-2.462-1.078-4.8-2.95-6.399l-149.273-127.489c-5.692-4.863-14.076-4.863-19.767 0l-6.886 5.882 142.386 121.607c1.871 1.599 2.949 3.937 2.949 6.399z" fill="#c89b58"/></g><g><path d="m353.39 436.097h-197.284v-418.338c0-5.523 4.477-10 10-10h177.284c5.523 0 10 4.477 10 10z" fill="#fceed9"/></g><g><path d="m343.897 7.759h-32.622c5.243 0 9.493 4.25 9.493 9.493v418.845h32.622v-418.844c0-5.244-4.25-9.494-9.493-9.494z" fill="#fad59a"/></g><g><path d="m264.632 425.126c-5.692 4.863-14.076 4.863-19.767 0l-152.223-130.071v197.85h324.213v-197.85z" fill="#fad59a"/></g><g><path d="m373.891 331.766v161.138h42.964v-197.849z" fill="#e7b467"/></g><g><path d="m268.701 354.17c-8.035-6.866-19.871-6.866-27.906 0l-148.153 126.594v12.14c0 6.427 5.21 11.637 11.637 11.637h300.938c6.427 0 11.638-5.21 11.638-11.637v-12.14z" fill="#e7b467"/></g><g><path d="m373.802 443.977v29.45c0 6.427-5.21 11.638-11.638 11.638h-269.522v7.84c0 6.427 5.21 11.637 11.637 11.637h300.938c6.427 0 11.638-5.21 11.638-11.637v-12.14z" fill="#c89b58"/></g><g><path d="m456.814 37.029-49.503-28.581c-4.667-2.694-10.5.674-10.5 6.062v57.162c0 5.389 5.833 8.756 10.5 6.062l49.503-28.581c4.667-2.694 4.667-9.43 0-12.124z" fill="#1690fb"/></g><g><path d="m456.873 37.062-8.665-5.003-51.396 29.674v10.006c0 5.358 5.801 8.708 10.441 6.028l49.621-28.649c4.639-2.678 4.639-9.376-.001-12.056z" fill="#0571f9"/></g><g><g><path d="m503.218 189.842c0 4.99-8.327 8.818-9.557 13.42-1.273 4.761 3.987 12.233 1.575 16.402-2.447 4.229-11.569 3.393-15.001 6.824-3.432 3.432-2.596 12.554-6.825 15.001-4.168 2.412-11.64-2.848-16.401-1.575-4.602 1.23-8.43 9.557-13.42 9.557-4.989 0-8.818-8.327-13.42-9.557-4.761-1.273-12.233 3.987-16.402 1.575-4.229-2.447-3.393-11.569-6.824-15.001-3.432-3.432-12.554-2.596-15.001-6.825-2.412-4.168 2.848-11.64 1.575-16.401-1.23-4.602-9.557-8.43-9.557-13.42s8.327-8.818 9.557-13.42c1.273-4.761-3.987-12.233-1.575-16.402 2.447-4.229 11.569-3.393 15.001-6.824 3.432-3.432 2.596-12.554 6.825-15.001 4.168-2.412 11.64 2.848 16.401 1.575 4.602-1.23 8.43-9.557 13.42-9.557s8.818 8.327 13.42 9.557c4.761 1.273 12.233-3.987 16.402-1.575 4.229 2.447 3.393 11.569 6.824 15.001 3.432 3.432 12.554 2.596 15.001 6.825 2.412 4.168-2.848 11.64-1.575 16.401 1.23 4.602 9.557 8.43 9.557 13.42z" fill="#1690fb"/></g><g><circle cx="443.589" cy="189.842" fill="#fff" r="21.926"/></g><g><path d="m493.661 176.422c-1.273-4.761 3.987-12.232 1.575-16.401-2.446-4.229-11.569-3.393-15.001-6.825s-2.596-12.554-6.824-15.001c-1.791-1.036-4.194-.654-6.727.015 9.285 10.236 14.943 23.822 14.943 38.73 0 31.848-25.818 57.666-57.666 57.666-4.931 0-9.716-.622-14.284-1.786.875 3.524 1.617 7.237 4.09 8.668 4.169 2.412 11.64-2.847 16.402-1.575 4.602 1.23 8.431 9.557 13.42 9.557s8.818-8.327 13.42-9.557c4.761-1.273 12.232 3.987 16.401 1.575 4.229-2.447 3.393-11.569 6.825-15.001s12.554-2.596 15.001-6.824c2.412-4.169-2.847-11.641-1.575-16.402 1.23-4.602 9.557-8.43 9.557-13.42 0-4.989-8.327-8.817-9.557-13.419z" fill="#0571f9"/></g></g><g><path d="m418.748 279.654-57.9-49.45v-212.501c0-9.595-7.807-17.402-17.402-17.402h-113.061c-4.119 0-7.458 3.339-7.458 7.458s3.339 7.458 7.458 7.458h113.061c1.371 0 2.486 1.115 2.486 2.486v285.122c0 4.119 3.339 7.458 7.458 7.458s7.458-3.339 7.458-7.458v-53.005l48.212 41.176c.19.162.292.393.316.638l-101.19 86.466-34.64-29.6c-10.892-9.306-26.703-9.306-37.595 0l-34.64 29.6-37.746-32.253v-328.144c0-1.371 1.115-2.486 2.486-2.486h29.719c4.119 0 7.458-3.339 7.458-7.458s-3.339-7.458-7.458-7.458h-29.72c-9.595 0-17.402 7.807-17.402 17.402v212.501l-57.9 49.451c-3.536 3.021-5.564 7.42-5.564 12.07 0 0 .014 201.693.039 201.944.405 10.173 8.785 18.331 19.056 18.331h300.938c10.271 0 18.651-8.158 19.057-18.331.026-.251.039-201.944.039-201.944 0-4.651-2.028-9.05-5.565-12.071zm-9.352 31.584v153.344l-89.729-76.672zm-260.748-61.419v83.282l-48.529-41.467c.024-.245.127-.476.316-.638zm256.569 247.265h-300.938c-2.304 0-4.179-1.875-4.179-4.179v-8.703l29.73-25.404c3.132-2.676 3.501-7.384.825-10.515-2.675-3.132-7.384-3.501-10.515-.825l-20.04 17.124v-153.344l89.729 76.672-44.667 38.167c-3.131 2.676-3.501 7.384-.825 10.515 2.677 3.132 7.384 3.501 10.515.825l90.788-77.577c5.278-4.509 12.939-4.509 18.216 0l145.54 124.362v8.703c0 2.304-1.874 4.179-4.179 4.179z"/><path d="m321.185 67.826c0-4.119-3.339-7.458-7.458-7.458h-117.958c-4.119 0-7.458 3.339-7.458 7.458v76.258c0 4.119 3.339 7.458 7.458 7.458h117.958c4.119 0 7.458-3.339 7.458-7.458zm-117.958 13.702 37.784 24.427-37.784 24.427zm17.816-6.244h67.411l-33.706 21.79zm33.705 39.551 33.706 21.79h-67.411zm13.737-8.88 37.784-24.427v48.853z"/><path d="m195.769 189.769h69.625c4.119 0 7.458-3.339 7.458-7.458s-3.339-7.458-7.458-7.458h-69.625c-4.119 0-7.458 3.339-7.458 7.458s3.339 7.458 7.458 7.458z"/><path d="m195.769 217.986h69.625c4.119 0 7.458-3.339 7.458-7.458s-3.339-7.458-7.458-7.458h-69.625c-4.119 0-7.458 3.339-7.458 7.458s3.339 7.458 7.458 7.458z"/><path d="m320.632 239.908c0-4.119-3.339-7.458-7.458-7.458h-117.405c-4.119 0-7.458 3.339-7.458 7.458s3.339 7.458 7.458 7.458h117.405c4.119 0 7.458-3.34 7.458-7.458z"/><path d="m195.769 260.666c-4.119 0-7.458 3.339-7.458 7.458s3.339 7.458 7.458 7.458h34.813c4.119 0 7.458-3.339 7.458-7.458s-3.339-7.458-7.458-7.458z"/><path d="m82.13 77.635c-.013 0-.025 0-.038 0-4.101 0-7.437 3.315-7.457 7.421l-.001.289c-4.019-2.46-8.686-3.825-13.785-3.825-16.998 0-30.313 15.051-30.313 34.264 0 19.534 13.338 35.426 29.732 35.426 6.547 0 12.522-2.512 17.337-6.801.86 1.41 1.861 2.732 3.03 3.907 3.628 3.646 8.313 5.653 13.194 5.653 13.731 0 22.412-9.526 25.956-18.44 5.356-13.466 6.314-24.834 3.105-36.857-.021-.078-.043-.155-.066-.232-4.842-16.042-15.675-29.178-30.502-36.987-14.825-7.808-31.791-9.307-47.77-4.22-15.143 4.821-27.74 15.212-35.471 29.259-7.734 14.052-9.767 30.254-5.726 45.622 6.974 26.518 30.957 45.568 58.32 46.325.07.002.14.003.21.003 4.023 0 7.34-3.205 7.451-7.252.114-4.117-3.132-7.548-7.249-7.662-20.787-.575-39.006-15.053-44.307-35.208-6.384-24.273 7.363-49.254 31.297-56.873 12.142-3.864 25.032-2.726 36.294 3.205 11.221 5.909 19.806 15.726 23.129 27.955 2.317 8.528 1.188 20.148-2.575 27.41-4.943 9.538-16.506 12.584-16.612 3.025l.237-47.911c.021-4.12-3.302-7.475-7.42-7.496zm-21.862 58.659c-7.155 0-14.816-8.241-14.816-20.51 0-12.111 7.828-19.348 15.396-19.348 7.907 0 13.456 7.638 13.638 18.633.485 10.159-6.299 21.387-14.218 21.225z"/><path d="m396.562 84.226c3.592 1.919 8.675 3.03 14.419 0l49.621-28.649c4.515-2.606 7.209-7.274 7.209-12.487s-2.695-9.881-7.209-12.487l-49.621-28.648c-4.515-2.607-9.905-2.607-14.419 0-4.514 2.606-7.209 7.274-7.209 12.487v57.297c0 5.213 2.695 9.881 7.209 12.487zm7.707-68.922 48.128 27.787-48.128 27.787z"/><path d="m503.424 176.991c-.81-.774-1.976-1.889-2.49-2.558.097-.874.574-2.522.905-3.664 1.159-4.002 2.745-9.483-.148-14.483-2.919-5.045-8.501-6.411-12.576-7.408-1.128-.276-2.755-.674-3.549-1.012-.338-.795-.737-2.422-1.013-3.55-.997-4.075-2.362-9.657-7.408-12.576-4.998-2.892-10.48-1.307-14.483-.148-1.143.33-2.791.807-3.665.905-.669-.514-1.783-1.68-2.558-2.49-2.927-3.06-6.935-7.252-12.851-7.252s-9.924 4.192-12.851 7.252c-.774.81-1.889 1.976-2.558 2.49-.874-.097-2.522-.574-3.664-.905-4.002-1.159-9.485-2.745-14.482.147-5.046 2.919-6.411 8.501-7.409 12.576-.276 1.128-.674 2.756-1.013 3.55-.794.338-2.421.737-3.549 1.012-4.075.997-9.656 2.362-12.576 7.407-2.893 5-1.306 10.482-.148 14.484.331 1.142.808 2.791.905 3.664-.514.669-1.68 1.784-2.49 2.559-3.06 2.926-7.252 6.935-7.252 12.851s4.192 9.924 7.252 12.851c.81.774 1.975 1.889 2.49 2.558-.097.874-.574 2.522-.905 3.664-1.159 4.002-2.745 9.483.147 14.483 2.919 5.045 8.501 6.411 12.576 7.408 1.128.276 2.755.674 3.549 1.012.338.795.737 2.422 1.013 3.55.997 4.075 2.362 9.657 7.408 12.576 4.999 2.893 10.481 1.307 14.483.148 1.142-.33 2.791-.807 3.664-.905.669.514 1.784 1.68 2.558 2.49 2.927 3.06 6.935 7.252 12.851 7.252 5.915 0 9.924-4.191 12.851-7.252.774-.81 1.889-1.976 2.558-2.49.874.097 2.522.574 3.663.905 4.002 1.159 9.482 2.745 14.483-.148 5.045-2.919 6.411-8.5 7.408-12.575.276-1.128.674-2.756 1.013-3.55.794-.339 2.421-.737 3.55-1.013 4.075-.997 9.657-2.362 12.575-7.407 2.893-5 1.306-10.482.148-14.484-.331-1.142-.808-2.79-.905-3.664.514-.669 1.68-1.784 2.49-2.558 3.06-2.927 7.252-6.935 7.252-12.851s-4.189-9.925-7.249-12.851zm-10.309 14.921c-2.607 2.493-5.562 5.319-6.659 9.424-1.123 4.201.084 8.373 1.055 11.726.219.757.504 1.741.696 2.562-.824.25-1.849.501-2.636.693-3.369.824-7.563 1.85-10.61 4.897s-4.073 7.241-4.897 10.61c-.192.786-.443 1.812-.693 2.635-.821-.192-1.805-.477-2.561-.696-3.353-.971-7.527-2.178-11.726-1.055-4.105 1.097-6.931 4.052-9.424 6.659-.604.632-1.405 1.469-2.07 2.079-.666-.609-1.466-1.447-2.071-2.079-2.493-2.607-5.319-5.563-9.424-6.659-1.201-.321-2.4-.452-3.579-.452-2.941 0-5.754.814-8.148 1.506-.756.219-1.741.504-2.562.696-.251-.824-.501-1.849-.693-2.635-.824-3.37-1.85-7.563-4.897-10.61-3.046-3.047-7.24-4.072-10.609-4.897-.786-.192-1.812-.443-2.636-.693.192-.821.477-1.805.696-2.561.971-3.353 2.179-7.525 1.056-11.727-1.097-4.105-4.052-6.931-6.659-9.424-.632-.605-1.469-1.405-2.079-2.07.609-.665 1.446-1.466 2.079-2.07 2.607-2.493 5.562-5.319 6.659-9.424 1.123-4.201-.084-8.373-1.055-11.726-.219-.757-.504-1.741-.696-2.562.824-.25 1.85-.501 2.636-.693 3.37-.824 7.563-1.85 10.61-4.897s4.073-7.24 4.897-10.61c.192-.786.443-1.811.693-2.635.821.192 1.805.477 2.561.696 3.353.971 7.527 2.178 11.726 1.055 4.105-1.097 6.931-4.052 9.424-6.659.604-.632 1.405-1.469 2.07-2.079.665.609 1.466 1.446 2.07 2.079 2.493 2.607 5.319 5.562 9.424 6.659 4.2 1.125 8.373-.084 11.726-1.055.757-.219 1.741-.504 2.562-.696.251.824.501 1.849.693 2.635.824 3.37 1.85 7.563 4.897 10.61 3.046 3.047 7.24 4.072 10.609 4.897.786.192 1.812.443 2.636.693-.192.821-.477 1.805-.696 2.561-.971 3.353-2.178 7.525-1.055 11.726 1.097 4.105 4.052 6.93 6.659 9.424.632.605 1.469 1.405 2.079 2.07-.609.667-1.446 1.468-2.078 2.072z"/><path d="m443.589 160.458c-16.202 0-29.384 13.182-29.384 29.384s13.182 29.384 29.384 29.384 29.384-13.182 29.384-29.384-13.181-29.384-29.384-29.384zm0 43.852c-7.978 0-14.468-6.49-14.468-14.468s6.49-14.468 14.468-14.468 14.468 6.49 14.468 14.468-6.49 14.468-14.468 14.468z"/></g></g></svg>