<svg id="Capa_1" enable-background="new 0 0 512 512" height="512" viewBox="0 0 512 512" width="512" xmlns="http://www.w3.org/2000/svg"><g><g><path d="m424.738 258.685h-337.96c-43.759 0-79.232-35.473-79.232-79.232v-44.667c0-43.759 35.473-79.232 79.232-79.232h337.96c43.759 0 79.232 35.473 79.232 79.232v44.667c0 43.759-35.474 79.232-79.232 79.232z" fill="#d8eafb"/></g><g><path d="m455.121 61.755c3.991 9.495 6.201 19.923 6.201 30.868v43.696c0 44.027-35.691 79.717-79.718 79.717h-336.989c-10.945 0-21.374-2.21-30.868-6.201 12.064 28.697 40.435 48.849 73.516 48.849h336.989c44.026 0 79.717-35.691 79.717-79.717v-43.696c.001-33.081-20.152-61.452-48.848-73.516z" fill="#b3d8fb"/></g><g><path d="m504.454 312.799c0 15.58-12.194 29.044-16.759 43.102-4.731 14.57-2.942 32.598-11.769 44.726-8.915 12.249-26.673 16.078-38.922 24.993-12.128 8.826-21.209 24.583-35.779 29.314-14.058 4.565-30.602-2.696-46.182-2.696s-32.123 7.26-46.182 2.696c-14.57-4.731-23.652-20.488-35.78-29.314-12.249-8.915-30.008-12.743-38.922-24.993-8.826-12.128-7.037-30.156-11.768-44.726-4.565-14.058-16.759-27.523-16.759-43.103s12.194-29.044 16.759-43.102c4.731-14.57 2.942-32.598 11.769-44.726 8.915-12.249 26.673-16.078 38.922-24.993 12.128-8.826 21.209-24.583 35.779-29.314 14.058-4.565 30.602 2.696 46.182 2.696s32.123-7.26 46.182-2.696c14.57 4.731 23.652 20.488 35.78 29.314 12.249 8.915 30.008 12.743 38.922 24.993 8.826 12.128 7.037 30.156 11.768 44.726 4.565 14.058 16.759 27.523 16.759 43.103z" fill="#f9c301"/></g><g><path d="m487.695 269.696c-4.731-14.57-2.942-32.598-11.768-44.726-8.259-11.349-24.104-15.477-36.132-23.111 8.366 18.541 13.023 39.116 13.023 60.778 0 81.703-66.234 147.937-147.937 147.937-27.742 0-53.696-7.643-75.884-20.929 1.174 3.967 2.771 7.696 5.163 10.982 8.915 12.249 26.673 16.078 38.922 24.993 12.128 8.826 21.209 24.583 35.78 29.314 14.058 4.565 30.602-2.696 46.182-2.696s32.124 7.26 46.182 2.696c14.57-4.731 23.651-20.488 35.779-29.314 12.249-8.915 30.007-12.743 38.922-24.993 8.826-12.128 7.037-30.156 11.769-44.726 4.564-14.058 16.759-27.522 16.759-43.102-.001-15.581-12.195-29.045-16.76-43.103z" fill="#d4a806"/></g><g><circle cx="355.043" cy="312.799" fill="#fceed9" r="110.738"/></g><g><path d="m413.35 218.66c10.512 16.936 16.599 36.907 16.599 58.306 0 61.159-49.579 110.738-110.737 110.738-21.4 0-41.37-6.087-58.306-16.599 19.531 31.466 54.38 52.431 94.139 52.431 61.159 0 110.738-49.579 110.738-110.738-.002-39.758-20.967-74.607-52.433-94.138z" fill="#fad59a"/></g><g><path d="m87.264 63.1h250.06c4.168 0 7.546-3.378 7.546-7.546s-3.378-7.546-7.546-7.546h-250.06c-48.118.001-87.264 39.146-87.264 87.264v43.696c0 17.769 5.31 34.869 15.355 49.452 1.464 2.125 3.822 3.265 6.221 3.265 1.476 0 2.966-.432 4.274-1.332 3.432-2.364 4.298-7.063 1.934-10.495-8.303-12.053-12.692-26.193-12.692-40.89v-43.696c0-39.796 32.376-72.172 72.172-72.172z"/><path d="m176.048 122.584-15.413 43.975-15.148-44.405c-2.009-5.596-10.867-7.969-14.25-.097l-15.948 44.748-15.156-44.102c-1.355-3.941-5.648-6.039-9.589-4.684-3.941 1.354-6.039 5.647-4.684 9.589l22.162 64.491c1.042 3.033 3.887 5.075 7.093 5.094h.043c3.189 0 6.037-2.006 7.108-5.013l15.921-44.674 15.207 44.578c1.039 3.045 3.894 5.096 7.111 5.11h.031c3.204 0 6.06-2.024 7.121-5.05l22.632-64.567c1.379-3.933-.693-8.239-4.626-9.617-3.93-1.381-8.235.692-9.615 4.624z"/><path d="m501.622 281.779c-5.235-8.996-8.792-18.557-9.964-30.725-.655-4.614-1.32-9.296-2.409-13.861 14.391-16.027 22.267-36.534 22.267-58.226v-43.696c0-48.117-39.146-87.263-87.264-87.263h-50.56c-4.168 0-7.546 3.378-7.546 7.546s3.378 7.546 7.546 7.546h50.56c39.796 0 72.172 32.376 72.172 72.171v43.696c0 15.457-4.841 30.184-13.791 42.444-.201-.294-.393-.592-.604-.882-6.642-9.125-16.583-13.97-26.197-18.655-9.865-4.449-18.019-9.74-26.238-19.077-5.436-5.661-11.014-11.454-17.86-15.55l13.906-39.671c1.379-3.933-.693-8.239-4.626-9.617-3.931-1.38-8.238.692-9.617 4.625l-13.846 39.502c-1.069-.16-2.139-.268-3.211-.346l-13.505-39.586c-1.993-5.205-10.618-8.257-14.25-.097l-15.534 43.589c-.278-.022-.559-.052-.838-.077l-14.73-42.865c-1.353-3.939-5.642-6.038-9.589-4.684-3.941 1.354-6.039 5.647-4.684 9.589l12.154 35.368c-8.904-1.452-17.987-2.363-26.833.509-5.252 1.706-9.759 4.46-13.858 7.72l15.293-43.629c1.379-3.933-.693-8.239-4.626-9.617-3.931-1.38-8.239.692-9.617 4.625l-15.414 43.976-15.148-44.405c-2.009-5.629-10.843-7.945-14.25-.097l-15.947 44.747-15.156-44.101c-1.355-3.941-5.648-6.039-9.589-4.684-3.941 1.354-6.039 5.647-4.684 9.589l22.162 64.491c1.042 3.033 3.887 5.075 7.093 5.094h.043c3.189 0 6.037-2.006 7.108-5.013l15.921-44.674 15.175 44.481c-.792.663-1.588 1.302-2.395 1.889-4.106 2.988-9.099 5.422-14.387 7.998-9.613 4.685-19.555 9.53-26.195 18.655-6.582 9.042-8.132 19.964-9.632 30.526-.004.028-.008.056-.012.084h-131.152c-13.454 0-26.577-3.724-37.95-10.77-3.542-2.194-8.193-1.103-10.389 2.441-2.194 3.543-1.101 8.194 2.441 10.388 13.762 8.527 29.634 13.033 45.898 13.033h128.291c-.112.379-.22.762-.341 1.134-1.497 4.612-4.049 9.373-6.75 14.414-4.865 9.077-10.378 19.365-10.378 31.019s5.513 21.943 10.378 31.02c5.236 8.996 8.792 18.556 9.964 30.724 1.499 10.562 3.051 21.483 9.631 30.525 6.641 9.126 16.582 13.97 26.196 18.656 9.866 4.448 18.017 9.739 26.237 19.076 7.45 7.757 15.152 15.777 26.04 19.312 4.223 1.371 8.498 1.881 12.784 1.88 16.927-.588 34.254-7.124 52.596-2.191 10.421 1.82 21.199 3.703 31.645.31 10.888-3.535 18.59-11.555 26.038-19.311 7.274-8.067 14.825-14.091 26.238-19.077 9.613-4.685 19.555-9.529 26.197-18.656 6.58-9.042 8.131-19.963 9.63-30.525 1.239-10.957 3.582-19.759 9.964-30.725 4.865-9.077 10.378-19.365 10.378-31.019-.002-11.655-5.515-21.943-10.38-31.02zm-128.086-134.273 5.171 15.159c-2.278.345-4.546.738-6.798 1.132-1.505.263-2.988.522-4.451.762zm114.784 189.183c-5.823 9.812-10.392 22.574-11.603 35.732-1.297 9.135-2.522 17.762-6.892 23.766-4.429 6.086-12.287 9.915-20.605 13.969-10.733 4.716-21.702 12.082-30.512 22.19-6.443 6.709-12.527 13.045-19.814 15.411-6.883 2.234-15.385.75-24.388-.823-11.364-2.48-25.704-3.02-38.927 0-9.003 1.574-17.507 3.057-24.387.824-7.288-2.366-13.373-8.703-19.816-15.412-7.424-8.484-18.598-17.172-30.511-22.189-8.318-4.053-16.175-7.882-20.604-13.969-4.369-6.004-5.595-14.632-6.893-23.767-1.145-11.218-4.748-24.442-11.603-35.731-4.417-8.241-8.588-16.025-8.588-23.891 0-7.865 4.172-15.649 8.587-23.891 5.824-9.812 10.392-22.574 11.604-35.731 1.297-9.135 2.522-17.763 6.893-23.767 4.429-6.086 12.286-9.915 20.604-13.969 10.733-4.716 21.702-12.082 30.512-22.19 6.443-6.709 12.527-13.045 19.814-15.411 6.366-2.106 15.738-.762 24.388.823 11.365 2.48 25.703 3.02 38.927 0 9.004-1.573 17.509-3.057 24.388-.823 7.287 2.366 13.371 8.702 19.814 15.411 7.425 8.484 18.599 17.172 30.512 22.19 8.318 4.054 16.176 7.882 20.605 13.969 4.369 6.004 5.595 14.632 6.892 23.766 1.145 11.219 4.748 24.443 11.603 35.732 4.417 8.241 8.588 16.025 8.588 23.891 0 7.865-4.172 15.649-8.588 23.89z"/><path d="m355.044 194.515c-65.222 0-118.284 53.062-118.284 118.284s53.062 118.283 118.284 118.283c32.237 0 62.366-12.735 84.837-35.859 2.904-2.989 2.836-7.766-.153-10.67-2.989-2.905-7.766-2.835-10.67.153-19.604 20.174-45.889 31.285-74.013 31.285-56.901 0-103.193-46.292-103.193-103.192s46.292-103.192 103.193-103.192c56.9 0 103.192 46.292 103.192 103.192 0 16.789-3.903 32.798-11.599 47.582-1.925 3.697-.488 8.253 3.209 10.178 3.695 1.924 8.252.488 10.177-3.208 8.704-16.719 13.305-35.583 13.305-54.551-.002-65.223-53.063-118.285-118.285-118.285z"/><path d="m354.231 300.091c4.168 0 7.546-3.378 7.546-7.546 0-4.167-3.378-7.546-7.546-7.546h-9.535l5.257-25.291c.848-4.08-1.772-8.076-5.852-8.924-4.081-.85-8.077 1.772-8.923 5.853l-5.896 28.362h-9.344l5.257-25.291c.848-4.08-1.772-8.076-5.852-8.924-4.081-.85-8.076 1.772-8.923 5.853l-5.895 28.362h-12.645c-4.168 0-7.546 3.378-7.546 7.546 0 4.167 3.378 7.546 7.546 7.546h9.507l-4.423 21.279h-12.604c-4.168 0-7.546 3.378-7.546 7.546s3.378 7.546 7.546 7.546h9.467l-5.378 25.874c-.848 4.08 1.772 8.076 5.852 8.924.518.108 1.035.159 1.544.159 3.5 0 6.64-2.449 7.38-6.012l6.017-28.946h9.344l-5.378 25.874c-.848 4.08 1.772 8.076 5.852 8.924.518.108 1.035.159 1.544.159 3.5 0 6.64-2.449 7.38-6.012l6.017-28.946h12.711c4.168 0 7.546-3.378 7.546-7.546s-3.378-7.546-7.546-7.546h-9.574l4.423-21.279h12.67zm-32.509 21.28h-9.344l4.423-21.279h9.344z"/><path d="m404.009 371.408c4.168 0 7.546-3.378 7.546-7.546v-105.699c0-4.167-3.378-7.546-7.546-7.546h-22.593c-4.168 0-7.546 3.378-7.546 7.546s3.378 7.546 7.546 7.546h15.047v98.154c0 4.167 3.378 7.545 7.546 7.545z"/></g></g></svg>