<svg id="Capa_1" enable-background="new 0 0 512 512" height="512" viewBox="0 0 512 512" width="512" xmlns="http://www.w3.org/2000/svg"><g><g><path d="m322.078 114.549h-273.605l45.257 283.273c1.882 11.778 12.042 20.444 23.969 20.444h135.152c11.927 0 22.087-8.666 23.969-20.444z" fill="#9d6b6b"/></g><g><path d="m283.16 114.549-39.896 249.716c-1.882 11.778-12.042 20.444-23.969 20.444h-127.66l2.095 13.113c1.882 11.778 12.042 20.444 23.969 20.444h135.152c11.927 0 22.087-8.666 23.969-20.444l45.257-283.273z" fill="#785252"/></g><g><path d="m293.68 115.81h-216.809v-47.95c0-8.047 6.523-14.57 14.57-14.57h187.669c8.047 0 14.57 6.523 14.57 14.57z" fill="#fceed9"/></g><g><path d="m279.179 53.29h-37.874c8.009 0 14.501 6.492 14.501 14.501v48.019h37.874v-48.019c0-8.009-6.493-14.501-14.501-14.501z" fill="#fad59a"/></g><g><path d="m348.517 155.976h-326.483c-8.047 0-14.57-6.523-14.57-14.57v-33.38c0-8.047 6.523-14.57 14.57-14.57h326.483c8.047 0 14.57 6.523 14.57 14.57v33.38c0 8.047-6.523 14.57-14.57 14.57z" fill="#fceed9"/></g><g><path d="m348.586 93.455h-19.712v13.806c0 8.009-6.492 14.501-14.501 14.501h-306.909v19.712c0 8.009 6.492 14.501 14.501 14.501h326.62c8.009 0 14.501-6.492 14.501-14.501v-33.518c.001-8.008-6.491-14.501-14.5-14.501z" fill="#fad59a"/></g><g><circle cx="185.276" cy="261.365" fill="#dd636e" r="66.899"/></g><g><path d="m217.249 202.589c5.179 9.5 8.123 20.392 8.123 31.973 0 36.947-29.952 66.899-66.899 66.899-11.581 0-22.474-2.945-31.973-8.123 11.343 20.807 33.41 34.926 58.776 34.926 36.947 0 66.899-29.952 66.899-66.899 0-25.366-14.119-47.433-34.926-58.776z" fill="#d82e3d"/></g><g><path d="m452.846 398.518-5.833-4.976h-78.916l-36.249 4.976-36.249-4.976h-50.984c-18.283 0-36.431 3.125-53.661 9.239l-40.252 14.285c-8.547 3.033-8.545 15.122.004 18.152l40.277 14.275c17.211 6.1 35.337 9.217 53.598 9.217h49.688l37.578-4.976 37.579 4.976h77.586l5.833-4.976v-55.216z" fill="#fceed9"/></g><g><path d="m452.846 433.681h-233.293c-18.26 0-36.386-3.117-53.598-9.217l-17.535-6.215c-6.155 4.197-5.408 14.242 2.287 16.969l40.277 14.275c17.211 6.1 35.337 9.217 53.598 9.217h49.688l37.578-4.976 37.579 4.976h77.586l5.833-4.976z" fill="#fad59a"/></g><g><path d="m282.592 426.882c0 12.138 4.399 23.243 11.678 31.828h75.157c7.279-8.586 11.678-19.69 11.678-31.828 0-12.862-4.934-24.568-13.007-33.341h-72.498c-8.073 8.773-13.008 20.479-13.008 33.341z" fill="#dd636e"/></g><g><path d="m493.127 393.541h-46.114v65.169h46.114c6.301 0 11.408-5.108 11.408-11.408v-42.352c.001-6.301-5.107-11.409-11.408-11.409z" fill="#7c8b96"/></g><g><path d="m283.061 433.681c1.31 9.469 5.314 18.075 11.209 25.029h75.157c5.895-6.953 9.9-15.56 11.209-25.029z" fill="#d82e3d"/></g><g><path d="m493.127 393.541h-13.621v28.732c0 6.301-5.108 11.408-11.408 11.408h-21.085v25.029h46.114c6.301 0 11.408-5.108 11.408-11.408v-42.352c.001-6.301-5.107-11.409-11.408-11.409z" fill="#465961"/></g><g><path d="m110.912 261.365c0 41.004 33.359 74.364 74.364 74.364s74.364-33.36 74.364-74.364-33.36-74.364-74.364-74.364-74.364 33.36-74.364 74.364zm133.799 0c0 32.772-26.662 59.435-59.435 59.435-32.772 0-59.435-26.662-59.435-59.435s26.662-59.435 59.435-59.435c32.772.001 59.435 26.663 59.435 59.435z"/><path d="m493.128 386.077h-6.094v-2.651c0-22.122-17.998-40.121-40.12-40.121h-71.222c-6.145 0-11.144-5-11.144-11.145 0-4.123-3.342-7.465-7.465-7.465s-7.465 3.342-7.465 7.465c0 14.377 11.696 26.074 26.073 26.074h71.222c13.89 0 25.191 11.301 25.191 25.191v2.651h-227.488c-19.184 0-38.078 3.253-56.157 9.669 0 0-41.477 14.771-42.061 15.055h-28.699c-8.307 0-15.287-5.954-16.597-14.156l-37.258-233.204h242.864l-30.629 191.707c-.65 4.071 2.123 7.898 6.193 8.549.399.064.796.094 1.187.094 3.604 0 6.775-2.616 7.362-6.288l31.005-194.062h26.759c12.112 0 21.966-9.854 21.966-21.966v-33.518c0-12.112-9.854-21.966-21.966-21.966h-47.441v-18.2c0-12.112-9.854-21.966-21.966-21.966h-187.805c-12.112 0-21.966 9.854-21.966 21.966v18.2h-47.441c-12.112.001-21.966 9.855-21.966 21.967v33.518c0 12.112 9.854 21.966 21.966 21.966h26.759l37.634 235.559c2.475 15.489 15.655 26.73 31.34 26.73h19.146c-.003.139-.016.275-.016.415.002 7.336 4.47 13.659 11.384 16.109l40.277 14.275c18.06 6.401 36.932 9.646 56.091 9.646h248.546c10.407 0 18.872-8.466 18.872-18.873v-42.353c.001-10.406-8.465-18.872-18.871-18.872zm-478.199-244.602v-33.518c0-3.88 3.156-7.037 7.036-7.037h199.231c4.123 0 7.465-3.342 7.465-7.465s-3.342-7.465-7.465-7.465h-136.86v-18.2c0-3.88 3.157-7.037 7.037-7.037h187.806c3.88 0 7.037 3.157 7.037 7.037v18.2h-29.376c-4.122 0-7.465 3.342-7.465 7.465s3.342 7.465 7.465 7.465h91.746c3.88 0 7.037 3.157 7.037 7.037v33.518c0 3.88-3.157 7.036-7.037 7.036h-326.62c-3.88 0-7.037-3.156-7.037-7.036zm350.864 309.771h-67.889c-5.081-7.074-7.848-15.606-7.848-24.364 0-9.447 3.168-18.52 8.98-25.876h65.624c5.812 7.356 8.98 16.429 8.98 25.876 0 8.758-2.766 17.289-7.847 24.364zm-172.315-8.789-40.278-14.275c-1.191-.422-1.441-1.342-1.442-2.04 0-.698.25-1.618 1.441-2.042l40.252-14.285c16.472-5.845 33.686-8.809 51.164-8.809h36.762c-4.076 7.937-6.25 16.777-6.25 25.876 0 8.48 1.916 16.802 5.515 24.364h-36.06c-17.456 0-34.65-2.957-51.104-8.789zm303.593 4.845c0 2.175-1.769 3.944-3.943 3.944h-46.114-63.959c3.599-7.561 5.515-15.883 5.515-24.364 0-9.1-2.174-17.939-6.25-25.876h57.23v19.25c0 4.122 3.342 7.465 7.465 7.465s7.465-3.342 7.465-7.465v-19.25h38.649c2.174 0 3.943 1.769 3.943 3.944v42.352z"/></g></g></svg>