<svg id="Capa_1" enable-background="new 0 0 512 512" height="512" viewBox="0 0 512 512" width="512" xmlns="http://www.w3.org/2000/svg"><g><g><g><circle cx="255.547" cy="269.069" fill="#d8eafb" r="191.39"/></g><g><path d="m322.78 89.835c42.854 35.099 70.206 88.421 70.206 148.135 0 105.702-85.689 191.39-191.391 191.39-23.661 0-46.314-4.305-67.233-12.156 33.003 27.03 75.197 43.255 121.184 43.255 105.702 0 191.391-85.689 191.391-191.391.001-82.039-51.625-152.013-124.157-179.233z" fill="#b3d8fb"/></g></g><g><g><path d="m349.678 304.651 3.112 12.714c5.045 20.61 19.368 35.138 38.772 43.722 1.837 1.225 1.837 3.924 0 5.149-19.404 8.585-33.727 23.113-38.772 43.722l-3.112 12.714c-.64 2.616-4.36 2.616-5.001 0l-3.112-12.714c-5.045-20.61-19.368-35.138-38.772-43.722-1.837-1.225-1.837-3.924 0-5.149 19.404-8.585 33.727-23.113 38.772-43.722l3.112-12.714c.641-2.616 4.361-2.616 5.001 0z" fill="#fce25c"/></g><g><path d="m391.563 361.088c-19.404-8.585-33.727-23.113-38.772-43.722l-3.112-12.714c-.64-2.616-4.36-2.616-5.001 0l-3.112 12.714c-2.153 8.796-6.009 16.475-11.216 23.066 6.993 8.852 16.433 15.736 27.556 20.657 1.837 1.225 1.837 3.924 0 5.149-11.123 4.921-20.563 11.804-27.556 20.657 5.207 6.591 9.063 14.27 11.216 23.066l3.112 12.714c.64 2.616 4.36 2.616 5.001 0l3.112-12.714c5.045-20.61 19.368-35.138 38.772-43.722 1.837-1.227 1.837-3.927 0-5.151z" fill="#ffc50d"/></g></g><g><g><path d="m461.415 29.255 3.112 12.714c5.045 20.61 19.368 35.138 38.772 43.722 1.837 1.225 1.837 3.924 0 5.149-19.404 8.585-33.727 23.113-38.772 43.722l-3.112 12.714c-.64 2.616-4.36 2.616-5.001 0l-3.112-12.714c-5.045-20.61-19.368-35.138-38.772-43.722-1.837-1.225-1.837-3.924 0-5.149 19.404-8.585 33.727-23.113 38.772-43.722l3.112-12.714c.64-2.617 4.36-2.617 5.001 0z" fill="#fce25c"/></g><g><path d="m503.299 85.691c-19.404-8.585-33.727-23.113-38.772-43.722l-3.112-12.714c-.64-2.616-4.36-2.616-5.001 0l-3.112 12.714c-2.153 8.796-6.009 16.475-11.216 23.066 6.993 8.852 16.433 15.736 27.556 20.657 1.837 1.225 1.837 3.924 0 5.149-11.122 4.921-20.563 11.804-27.556 20.657 5.207 6.591 9.063 14.27 11.216 23.066l3.112 12.714c.64 2.616 4.36 2.616 5.001 0l3.112-12.714c5.045-20.61 19.368-35.138 38.772-43.722 1.837-1.227 1.837-3.926 0-5.151z" fill="#ffc50d"/></g></g><g><g><path d="m431.486 412.059 1.885 7.698c3.055 12.479 11.727 21.275 23.476 26.473 1.112.742 1.112 2.376 0 3.117-11.749 5.198-20.421 13.994-23.476 26.473l-1.885 7.698c-.388 1.584-2.64 1.584-3.028 0l-1.885-7.698c-3.055-12.479-11.727-21.275-23.476-26.473-1.112-.741-1.112-2.376 0-3.117 11.749-5.198 20.421-13.994 23.476-26.473l1.885-7.698c.387-1.584 2.64-1.584 3.028 0z" fill="#fce25c"/></g><g><path d="m456.846 446.231c-11.749-5.198-20.421-13.994-23.476-26.473l-1.885-7.698c-.388-1.584-2.64-1.584-3.028 0l-1.885 7.698c-1.304 5.326-3.638 9.975-6.791 13.966 4.234 5.36 9.95 9.528 16.685 12.507 1.112.741 1.112 2.376 0 3.117-6.735 2.979-12.45 7.147-16.685 12.507 3.153 3.991 5.487 8.64 6.791 13.966l1.884 7.698c.388 1.584 2.64 1.584 3.028 0l1.885-7.698c3.055-12.479 11.727-21.275 23.476-26.473 1.113-.741 1.113-2.376.001-3.117z" fill="#ffc50d"/></g></g><g><g><path d="m36.521 126.017 1.885 7.698c3.055 12.479 11.727 21.275 23.476 26.473 1.112.742 1.112 2.376 0 3.117-11.749 5.198-20.421 13.994-23.476 26.473l-1.885 7.698c-.388 1.584-2.64 1.584-3.028 0l-1.885-7.698c-3.055-12.479-11.727-21.275-23.476-26.473-1.112-.742-1.112-2.376 0-3.117 11.749-5.198 20.421-13.994 23.476-26.473l1.885-7.698c.388-1.584 2.641-1.584 3.028 0z" fill="#fce25c"/></g><g><path d="m61.882 160.188c-11.749-5.198-20.421-13.994-23.476-26.473l-1.885-7.698c-.388-1.584-2.64-1.584-3.028 0l-1.885 7.698c-1.304 5.326-3.638 9.975-6.791 13.966 4.234 5.36 9.95 9.528 16.685 12.507 1.112.741 1.112 2.376 0 3.117-6.734 2.979-12.45 7.147-16.685 12.507 3.153 3.991 5.487 8.64 6.791 13.966l1.884 7.698c.388 1.584 2.64 1.584 3.028 0l1.885-7.698c3.055-12.479 11.727-21.275 23.476-26.473 1.113-.741 1.113-2.375.001-3.117z" fill="#ffc50d"/></g></g><g><path d="m454.425 269.069c0-109.662-89.216-198.878-198.878-198.878-27.089 0-53.354 5.352-78.063 15.908-3.803 1.624-5.569 6.024-3.944 9.827s6.025 5.569 9.827 3.944c15.058-6.432 30.747-10.76 46.869-12.972-49.059 40.718-79.416 105.154-81.472 174.687h-76.95c2.379-58.984 32.757-113.126 82.318-145.952 3.447-2.284 4.391-6.929 2.108-10.377-2.284-3.448-6.931-4.39-10.377-2.108-55.85 36.991-89.193 99.018-89.193 165.922 0 109.661 89.216 198.878 198.878 198.878s198.877-89.217 198.877-198.879zm-15.139-7.484h-76.955c-2.055-69.521-32.402-133.946-81.446-174.665 87.039 12.048 154.802 85.232 158.401 174.665zm-92.108 63.293c5.491 16.34 16.704 29.558 32.87 38.784-16.166 9.226-27.379 22.444-32.87 38.784-5.492-16.34-16.705-29.558-32.871-38.784 16.167-9.226 27.379-22.444 32.871-38.784zm-4.773-18.446c.001 0 .001 0 0 0zm-15.82-29.872h20.756c-.191 6.263-.609 12.512-1.279 18.711-4.164.46-7.642 3.452-8.657 7.601l-3.112 12.714c-5.305 21.67-21.705 32.982-34.529 38.655-6.548 2.887-8.451 14.787 0 18.843 12.824 5.673 29.224 16.985 34.529 38.655l3.112 12.715c.717 2.926 2.66 5.274 5.203 6.568-18.797 10.145-39.551 17.104-61.536 20.171 11.134-9.259 21.405-19.816 30.685-31.57 2.562-3.245 2.008-7.954-1.237-10.516-3.246-2.562-7.953-2.008-10.516 1.237-10.94 13.857-23.342 25.909-36.969 35.964v-169.748h27.616c4.135 0 7.487-3.352 7.487-7.487s-3.352-7.487-7.487-7.487h-27.616v-169.605c50.513 37.29 82.148 100.681 84.308 169.604h-20.758c-4.135 0-7.487 3.352-7.487 7.487s3.352 7.488 7.487 7.488zm-78.525 169.724c-50.542-37.312-82.187-100.755-84.313-169.724h84.313zm0-354.303v169.604h-84.308c2.16-68.923 33.794-132.314 84.308-169.604zm-176.251 184.579h76.952c2.021 69.482 32.304 133.885 81.269 174.634-86.95-12.124-154.621-85.265-158.221-174.634zm285.738 145.456 2.516-10.278c5.305-21.67 21.705-32.982 34.529-38.655 6.547-2.886 8.451-14.787 0-18.843-12.824-5.673-29.224-16.985-34.529-38.655l-1.081-4.416c1.886-11.365 3.006-22.965 3.34-34.61h76.963c-2.44 60.602-34.337 113.742-81.738 145.457z"/><path d="m507.451 79.461c-.356-.237-.732-.444-1.123-.617-12.824-5.673-29.224-16.985-34.529-38.655l-3.112-12.714c-1.106-4.515-5.124-7.669-9.773-7.669-4.648 0-8.667 3.153-9.773 7.669l-3.112 12.714c-5.305 21.67-21.705 32.982-34.529 38.655-5.888 2.409-8.675 14.891 0 18.843 12.824 5.673 29.224 16.985 34.529 38.655l3.112 12.715c1.106 4.515 5.124 7.669 9.773 7.669s8.668-3.153 9.774-7.669l3.112-12.714c5.305-21.67 21.705-32.982 34.529-38.655 6.16-2.794 8.384-13.375 1.122-18.227zm-48.537 47.588c-5.492-16.34-16.705-29.558-32.871-38.784 16.167-9.226 27.38-22.444 32.871-38.784 5.491 16.34 16.704 29.558 32.87 38.784-16.166 9.227-27.378 22.445-32.87 38.784z"/><path d="m460.998 440.001c-.356-.237-.732-.444-1.123-.617-10.412-4.607-16.883-11.809-19.233-21.406l-1.884-7.697c-.993-4.06-4.606-6.896-8.785-6.896h-.001c-4.179 0-7.792 2.835-8.786 6.895l-1.885 7.698c-2.349 9.597-8.82 16.799-19.232 21.406-5.666 2.414-7.857 13.013 0 16.812 10.412 4.607 16.883 11.808 19.232 21.406l1.885 7.7c.994 4.06 4.608 6.894 8.788 6.894 4.179 0 7.792-2.837 8.785-6.895l1.885-7.698c2.35-9.598 8.821-16.799 19.232-21.406 5.243-2.348 7.801-11.537 1.122-16.196zm-36.785-26.161.001.008c0-.003-.001-.006-.001-.008 0-.001 0-.001 0 0zm5.758 49.941c-3.323-6.295-8.156-11.676-14.363-15.992 6.206-4.315 11.04-9.698 14.363-15.992 3.324 6.295 8.157 11.676 14.363 15.992-6.206 4.316-11.039 9.697-14.363 15.992z"/><path d="m66.035 169.536c4.753-3.037 6.219-12.612-1.123-16.195-10.413-4.607-16.883-11.809-19.233-21.406l-1.885-7.698s0 0 0-.001c-.994-4.06-4.608-6.895-8.788-6.895-4.179.001-7.793 2.837-8.785 6.896l-1.885 7.698c-2.35 9.598-8.821 16.8-19.233 21.406-5.666 2.414-7.857 13.013 0 16.812 10.412 4.606 16.882 11.808 19.232 21.406l1.884 7.697c.993 4.06 4.606 6.896 8.785 6.896h.001c4.179 0 7.792-2.835 8.786-6.895l1.885-7.698c2.349-9.598 8.82-16.799 19.232-21.406.394-.174.77-.38 1.127-.617zm-31.027 8.202c-3.324-6.295-8.157-11.676-14.363-15.992 6.206-4.315 11.04-9.697 14.363-15.992 3.323 6.294 8.157 11.677 14.363 15.992-6.207 4.316-11.04 9.698-14.363 15.992z"/></g></g></svg>