<svg height="480pt" viewBox="0 0 480 480" width="480pt" xmlns="http://www.w3.org/2000/svg"><path d="m344 216c70.71875 0 128 57.28125 128 128s-57.28125 128-128 128-128-57.28125-128-128 57.28125-128 128-128zm36 137.679688 36-32.800782-49.761719-6.71875-22.238281-42.160156-22.238281 42.160156-49.761719 6.71875 36 32.800782-8.480469 46.320312 44.480469-21.839844 44.480469 21.839844zm0 0" fill="#ffbd52"/><path d="m416 320.878906-36 32.800782 8.480469 46.320312-44.480469-21.839844-44.480469 21.839844 8.480469-46.320312-36-32.800782 49.761719-6.71875 22.238281-42.160156 22.238281 42.160156zm0 0" fill="#ef6461"/><path d="m216 8v208h-208v-208zm-68 121.679688 36-32.800782-49.761719-6.71875-22.238281-42.160156-22.238281 42.160156-49.761719 6.71875 36 32.800782-8.480469 46.320312 44.480469-21.839844 44.480469 21.839844zm0 0" fill="#bdd5ea"/><path d="m184 96.878906-36 32.800782 8.480469 46.320312-44.480469-21.839844-44.480469 21.839844 8.480469-46.320312-36-32.800782 49.761719-6.71875 22.238281-42.160156 22.238281 42.160156zm0 0" fill="#ef6461"/><g fill="#313b45"><path d="m224 216v-208c0-4.425781-3.585938-8-8-8h-208c-4.414062 0-8 3.574219-8 8v208c0 4.425781 3.585938 8 8 8h208c4.414062 0 8-3.574219 8-8zm-16-8h-192v-192h192zm0 0"/><path d="m344 208c-74.992188 0-136 61.007812-136 136s61.007812 136 136 136 136-61.007812 136-136-61.007812-136-136-136zm0 256c-66.167969 0-120-53.832031-120-120s53.832031-120 120-120 120 53.832031 120 120-53.832031 120-120 120zm0 0"/><path d="m240 112h72c13.230469 0 24 10.769531 24 24v28.6875l-18.34375-18.34375-11.3125 11.3125 32 32c1.558594 1.558594 3.609375 2.34375 5.65625 2.34375s4.097656-.785156 5.65625-2.34375l32-32-11.3125-11.3125-18.34375 18.34375v-28.6875c0-22.054688-17.945312-40-40-40h-72zm0 0"/><path d="m112 312v-44.6875l18.34375 18.34375 11.3125-11.3125-32-32c-3.128906-3.128906-8.183594-3.128906-11.3125 0l-32 32 11.3125 11.3125 18.34375-18.34375v44.6875c0 22.054688 17.945312 40 40 40h56v-16h-56c-13.230469 0-24-10.769531-24-24zm0 0"/><path d="m67.328125 132.609375-7.695313 41.941406c-.542968 2.976563.632813 6 3.039063 7.832031 2.417969 1.824219 5.648437 2.121094 8.351563.800782l40.976562-20.136719 40.976562 20.136719c1.113282.542968 2.320313.816406 3.519532.816406 1.710937 0 3.40625-.542969 4.832031-1.617188 2.40625-1.832031 3.582031-4.847656 3.039063-7.832031l-7.695313-41.941406 32.710937-29.808594c2.296876-2.097656 3.175782-5.328125 2.25-8.296875-.921874-2.960937-3.480468-5.128906-6.5625-5.542968l-45.671874-6.199219-20.328126-38.496094c-2.773437-5.25-11.375-5.25-14.148437 0l-20.328125 38.496094-45.671875 6.199219c-3.082031.421874-5.640625 2.582031-6.5625 5.542968-.925781 2.96875-.046875 6.199219 2.25 8.296875zm23.503906-34.546875c2.558594-.351562 4.792969-1.910156 6-4.191406l15.167969-28.734375 15.175781 28.734375c1.207031 2.28125 3.441407 3.839844 6 4.191406l32.777344 4.457031-23.335937 21.257813c-2.042969 1.855468-2.984376 4.636718-2.480469 7.359375l5.632812 30.679687-30.234375-14.855468c-1.109375-.546876-2.320312-.824219-3.527344-.824219-1.207031 0-2.414062.269531-3.527343.824219l-30.234375 14.855468 5.632812-30.679687c.496094-2.722657-.4375-5.503907-2.480468-7.359375l-23.335938-21.257813zm0 0"/><path d="m417.078125 312.960938-45.671875-6.199219-20.328125-38.496094c-2.773437-5.25-11.375-5.25-14.148437 0l-20.328126 38.496094-45.671874 6.199219c-3.082032.421874-5.640626 2.582031-6.5625 5.542968-.925782 2.96875-.046876 6.199219 2.25 8.296875l32.710937 29.808594-7.695313 41.941406c-.542968 2.976563.632813 6 3.039063 7.832031 2.40625 1.824219 5.648437 2.128907 8.351563.800782l40.976562-20.136719 40.976562 20.136719c1.113282.542968 2.320313.816406 3.519532.816406 1.710937 0 3.40625-.542969 4.832031-1.617188 2.40625-1.832031 3.582031-4.847656 3.039063-7.832031l-7.695313-41.941406 32.710937-29.808594c2.296876-2.097656 3.175782-5.328125 2.25-8.296875-.921874-2.960937-3.472656-5.121094-6.554687-5.542968zm-42.460937 34.816406c-2.042969 1.855468-2.984376 4.636718-2.480469 7.359375l5.632812 30.679687-30.234375-14.855468c-1.109375-.546876-2.320312-.824219-3.527344-.824219-1.207031 0-2.414062.269531-3.527343.824219l-30.234375 14.855468 5.632812-30.679687c.496094-2.722657-.4375-5.503907-2.480468-7.359375l-23.335938-21.257813 32.777344-4.457031c2.558594-.351562 4.792968-1.910156 6-4.191406l15.160156-28.734375 15.175781 28.734375c1.207031 2.28125 3.441407 3.839844 6 4.191406l32.777344 4.457031zm0 0"/><path d="m112 368h16v16h-16zm0 0"/><path d="m144 368h16v16h-16zm0 0"/><path d="m176 368h16v16h-16zm0 0"/><path d="m240 64h16v16h-16zm0 0"/><path d="m272 64h16v16h-16zm0 0"/><path d="m304 64h16v16h-16zm0 0"/></g></svg>