<svg height="480pt" viewBox="0 0 480 479" width="480pt" xmlns="http://www.w3.org/2000/svg"><path d="m347.519531 52.789062c59.28125 59.359376 59.28125 155.679688 0 215.039063-59.359375 59.28125-155.679687 59.28125-215.039062 0-59.28125-59.359375-59.28125-155.679687 0-215.039063 59.359375-59.28125 155.679687-59.28125 215.039062 0zm-51.519531 128.238282 56-53.28125-77.359375-10.957032-34.640625-68.480468-34.640625 68.480468-77.359375 10.957032 56 53.28125-13.199219 75.28125 69.199219-35.519532 69.199219 35.519532zm0 0" fill="#bdd5ea"/><path d="m352 127.746094-56 53.28125 13.199219 75.28125-69.199219-35.519532-69.199219 35.519532 13.199219-75.28125-56-53.28125 77.359375-10.957032 34.640625-68.480468 34.640625 68.480468zm0 0" fill="#ef6461"/><path d="m336 344.308594h-248v-32l-80 56 80 56v-32h248zm0 0" fill="#ef6461"/><path d="m144 440.308594h248v32l80-56-80-56v32h-248zm0 0" fill="#577399"/><g fill="#313b45"><path d="m309.214844 264.308594c1.671875 0 3.34375-.519532 4.746094-1.5625 2.445312-1.796875 3.664062-4.832032 3.136718-7.820313l-12.480468-71.042969 52.894531-50.335937c2.222656-2.117187 3.039062-5.3125 2.105469-8.230469-.9375-2.921875-3.457032-5.054687-6.496094-5.488281l-73.257813-10.390625-32.726562-64.746094c-2.730469-5.390625-11.550781-5.390625-14.28125 0l-32.726563 64.746094-73.257812 10.390625c-3.03125.433594-5.558594 2.558594-6.496094 5.488281-.933594 2.917969-.117188 6.121094 2.105469 8.230469l52.894531 50.335937-12.480469 71.042969c-.527343 2.988281.691407 6.023438 3.136719 7.820313 2.449219 1.816406 5.703125 2.074218 8.402344.683594l65.566406-33.65625 65.566406 33.65625c1.152344.589843 2.402344.878906 3.648438.878906zm-65.558594-50.648438c-1.144531-.585937-2.398438-.878906-3.65625-.878906s-2.503906.292969-3.65625.878906l-54.902344 28.175782 10.429688-59.40625c.464844-2.632813-.421875-5.328126-2.359375-7.175782l-44.023438-41.898437 61.023438-8.65625c2.59375-.367188 4.832031-1.976563 6.015625-4.3125l27.472656-54.34375 27.472656 54.34375c1.175782 2.335937 3.421875 3.945312 6.015625 4.3125l61.023438 8.65625-44.023438 41.898437c-1.945312 1.847656-2.832031 4.542969-2.359375 7.175782l10.429688 59.40625zm0 0"/><path d="m476.585938 409.757812-80-56c-2.441407-1.714843-5.632813-1.929687-8.28125-.539062-2.640626 1.371094-4.304688 4.105469-4.304688 7.089844v24h-296c-4.414062 0-8 3.574218-8 8v16.632812l-58.046875-40.632812 58.046875-40.632813v16.632813c0 4.421875 3.585938 8 8 8h152v-16h-144v-24c0-2.984375-1.664062-5.71875-4.304688-7.097656-2.65625-1.398438-5.847656-1.167969-8.28125.535156l-80 56c-2.140624 1.507812-3.414062 3.953125-3.414062 6.5625 0 2.605468 1.273438 5.054687 3.414062 6.550781l80 56c2.441407 1.71875 5.640626 1.929687 8.28125.535156 2.640626-1.367187 4.304688-4.101562 4.304688-7.085937v-24h296c4.414062 0 8-3.578125 8-8v-16.632813l58.046875 40.632813-58.046875 40.632812v-16.632812c0-4.425782-3.585938-8-8-8h-152v16h144v24c0 2.984375 1.664062 5.71875 4.304688 7.09375 1.167968.609375 2.429687.90625 3.695312.90625 1.617188 0 3.214844-.488282 4.585938-1.449219l80-56c2.140624-1.496094 3.414062-3.945313 3.414062-6.550781 0-2.609375-1.273438-5.054688-3.414062-6.550782zm0 0"/><path d="m353.136719 273.453125.328125-.328125-5.65625-5.65625-5.992188-5.328125c-3.519531 3.519531-7.289062 6.917969-11.199218 10.101563l10.09375 12.425781c4.335937-3.535157 8.519531-7.3125 12.425781-11.214844zm0 0"/><path d="m400 160.308594c0-2.921875-.078125-5.839844-.238281-8.777344l-15.976563.871094c.144532 2.640625.214844 5.28125.214844 7.90625 0 2.390625-.054688 4.785156-.175781 7.167968l15.976562.800782c.136719-2.65625.199219-5.3125.199219-7.96875zm0 0"/><path d="m374.464844 247.085938-13.441406-8.691407c-2.695313 4.167969-5.664063 8.273438-8.832032 12.210938l12.464844 10.03125c3.511719-4.359375 6.816406-8.921875 9.808594-13.550781zm0 0"/><path d="m351.710938 69.429688c3.160156 3.871093 6.152343 7.964843 8.90625 12.167968l13.382812-8.769531c-3.054688-4.664063-6.382812-9.207031-9.886719-13.503906zm0 0"/><path d="m398.105469 184.90625-15.816407-2.4375c-.769531 4.953125-1.800781 9.910156-3.082031 14.742188l15.472657 4.097656c1.425781-5.367188 2.578124-10.878906 3.425781-16.402344zm0 0"/><path d="m389.566406 217.242188-14.957031-5.6875c-1.785156 4.699218-3.824219 9.328124-6.082031 13.777343l14.273437 7.230469c2.511719-4.949219 4.785157-10.09375 6.765625-15.320312zm0 0"/><path d="m327.175781 294.507812-8.726562-13.398437c-4.21875 2.742187-8.601563 5.269531-13.042969 7.527344l7.257812 14.261719c4.945313-2.511719 9.824219-5.335938 14.511719-8.390626zm0 0"/><path d="m330.367188 48.179688c3.890624 3.144531 7.664062 6.519531 11.207031 10.0625l11.296875-11.328126c-3.941406-3.925781-8.136719-7.695312-12.457032-11.183593zm0 0"/><path d="m198.328125 5.796875c-5.390625 1.457031-10.753906 3.191406-15.921875 5.183594l5.753906 14.933593c4.65625-1.796874 9.472656-3.367187 14.328125-4.671874zm0 0"/><path d="m149.457031 272.292969c-3.871093-3.136719-7.640625-6.527344-11.199219-10.089844l-11.304687 11.328125c3.949219 3.945312 8.136719 7.710938 12.4375 11.191406zm0 0"/><path d="m167.113281 17.820312c-4.9375 2.519532-9.816406 5.359376-14.496093 8.414063l8.75 13.394531c4.207031-2.746094 8.59375-5.289062 13.023437-7.554687zm0 0"/><path d="m111.710938 225.8125c-2.277344-4.457031-4.335938-9.089844-6.136719-13.761719l-14.933594 5.738281c2 5.199219 4.296875 10.351563 6.824219 15.304688zm0 0"/><path d="m128.152344 251.011719c-3.167969-3.894531-6.160156-7.992188-8.878906-12.167969l-13.402344 8.753906c3.023437 4.636719 6.34375 9.183594 9.855468 13.511719zm0 0"/><path d="m297.046875 10.78125c-5.191406-1.976562-10.550781-3.714844-15.941406-5.136719l-4.097657 15.472657c4.839844 1.277343 9.664063 2.832031 14.335938 4.613281zm0 0"/><path d="m312.359375 17.554688-7.230469 14.265624c4.472656 2.273438 8.863282 4.800782 13.046875 7.503907l8.703125-13.417969c-4.65625-3.023438-9.542968-5.820312-14.519531-8.351562zm0 0"/><path d="m368.183594 94.613281c2.289062 4.453125 4.351562 9.078125 6.160156 13.742188l14.929688-5.765625c-2-5.1875-4.3125-10.328125-6.847657-15.289063zm0 0"/><path d="m231.34375.523438c-5.527344.296874-11.136719.886718-16.648438 1.777343l2.511719 15.800781c4.96875-.792968 10.007813-1.328124 14.984375-1.585937zm0 0"/><path d="m248.078125.5-.804687 15.984375c5.023437.246094 10.070312.769531 14.992187 1.535156l2.46875-15.816406c-5.46875-.839844-11.070313-1.414063-16.65625-1.703125zm0 0"/><path d="m100.921875 197.722656c-1.289063-4.816406-2.347656-9.773437-3.136719-14.742187l-15.808594 2.511719c.878907 5.511718 2.046876 11.015624 3.488282 16.367187zm0 0"/><path d="m198.65625 314.898438 4.121094-15.46875c-4.839844-1.28125-9.65625-2.839844-14.320313-4.632813l-5.738281 14.933594c5.191406 2 10.554688 3.738281 15.9375 5.167969zm0 0"/><path d="m231.679688 320.101562.832031-15.984374c-5.023438-.257813-10.070313-.785157-14.992188-1.554688l-2.496093 15.800781c5.472656.855469 11.074218 1.449219 16.65625 1.738281zm0 0"/><path d="m152.910156 294.554688c4.65625 3.035156 9.539063 5.847656 14.503906 8.386718l7.257813-14.265625c-4.472656-2.273437-8.855469-4.808593-13.039063-7.519531zm0 0"/><path d="m262.566406 302.539062c-4.964844.785157-10.007812 1.304688-14.992187 1.5625l.832031 15.984376c5.53125-.289063 11.136719-.875 16.65625-1.753907zm0 0"/><path d="m81.9375 135.46875 15.804688 2.472656c.769531-4.921875 1.816406-9.882812 3.105468-14.753906l-15.472656-4.09375c-1.429688 5.382812-2.589844 10.902344-3.4375 16.375zm0 0"/><path d="m105.671875 73.332031 13.425781 8.703125c2.726563-4.199218 5.703125-8.304687 8.847656-12.175781l-12.433593-10.078125c-3.496094 4.320312-6.808594 8.871094-9.839844 13.550781zm0 0"/><path d="m90.519531 103.140625 14.945313 5.703125c1.78125-4.664062 3.839844-9.296875 6.101562-13.777344l-14.261718-7.230468c-2.519532 4.96875-4.800782 10.121093-6.785157 15.304687zm0 0"/><path d="m291.648438 294.773438c-4.648438 1.78125-9.472657 3.34375-14.335938 4.648437l4.144531 15.453125c5.398438-1.445312 10.75-3.175781 15.917969-5.167969zm0 0"/><path d="m149.214844 48.507812-10.117188-12.390624c-4.273437 3.488281-8.394531 7.199218-12.234375 11.054687l-.359375.375 11.679688 10.9375c3.464844-3.472656 7.175781-6.824219 11.03125-9.976563zm0 0"/><path d="m80 160.316406c0 2.839844.070312 5.6875.222656 8.535156l15.976563-.855468c-.136719-2.550782-.199219-5.121094-.199219-7.679688 0-2.472656.0625-4.929687.183594-7.402344l-15.976563-.8125c-.136719 2.734376-.207031 5.476563-.207031 8.214844zm0 0"/><path d="m397.976562 134.867188c-.886718-5.503907-2.066406-11.007813-3.503906-16.351563l-15.449218 4.160156c1.296874 4.816407 2.351562 9.777344 3.160156 14.746094zm0 0"/><path d="m256 336.308594h16v16h-16zm0 0"/><path d="m288 336.308594h16v16h-16zm0 0"/><path d="m320 336.308594h16v16h-16zm0 0"/><path d="m144 432.308594h16v16h-16zm0 0"/><path d="m176 432.308594h16v16h-16zm0 0"/><path d="m208 432.308594h16v16h-16zm0 0"/></g></svg>